<svg width="950" height="384" viewBox="0 0 950 384" fill="none" xmlns="http://www.w3.org/2000/svg">
<g clip-path="url(#clip0_10_22)">
<path d="M197.752 325.428C198.034 325.516 198.287 329.111 198.313 333.417C198.36 341.041 198.324 341.283 196.958 342.68C195.573 344.097 185.683 354.819 184.052 356.674C180.623 360.573 175.451 366.364 173.053 368.989C170.306 371.998 163.508 379.733 161.295 382.369L160.235 383.632H73.9058L74.2032 372.656C74.3671 366.619 74.6241 361.557 74.7739 361.406C74.9282 361.256 93.7879 361.037 116.689 360.919C152.461 360.734 158.423 360.588 158.987 359.88C159.347 359.426 161.031 357.854 162.729 356.386C165.666 353.846 173.328 346.907 178.16 342.41C179.395 341.261 180.989 339.921 181.703 339.432C183.205 338.405 188.336 333.798 193.588 328.765C195.596 326.841 197.47 325.34 197.752 325.428ZM98.7602 197.382C98.7613 196.821 106.939 196.706 138.72 196.821L178.68 196.965L179.667 203.702C180.21 207.407 181.037 212.839 181.506 215.772C181.974 218.705 182.73 223.505 183.186 226.439C183.641 229.372 184.669 235.435 185.469 239.912C186.27 244.389 187.146 249.821 187.416 251.983C187.686 254.144 188.41 258.818 189.025 262.369C190.107 268.62 190.498 271.126 193.012 287.912C193.66 292.235 194.557 297.919 195.007 300.544C195.456 303.169 196.192 307.98 196.643 311.236C197.092 314.491 197.719 317.839 198.037 318.675C198.617 320.202 198.02 322.997 197.112 323.003C196.873 323.005 195.917 323.7 194.987 324.547C194.056 325.395 191.539 327.604 189.391 329.456C187.244 331.308 185.083 333.203 184.588 333.667C184.095 334.13 182.82 335.267 181.756 336.193C177.408 339.98 170.286 346.321 170.024 346.639C169.869 346.827 168.226 348.238 166.371 349.775C164.517 351.312 162.138 353.433 161.084 354.487L159.168 356.404L116.899 356.555C91.044 356.647 74.6319 356.502 74.6308 356.182C74.6308 355.894 75.7037 354.891 77.0156 353.953C78.3276 353.016 79.7792 351.901 80.2422 351.475C81.4509 350.366 90.4138 343.199 98.1985 337.117C100.205 335.549 102.351 333.79 102.968 333.205C103.585 332.622 107.183 329.681 110.964 326.67C114.745 323.659 117.838 321.023 117.838 320.812C117.838 319.667 115.855 306.017 114.159 295.491C113.089 288.853 111.709 280.137 111.092 276.123C110.475 272.109 109.733 267.562 109.443 266.018C109.153 264.474 108.632 261.19 108.287 258.719C107.94 256.249 107.05 250.438 106.307 245.807C105.564 241.176 104.699 235.618 104.384 233.456C104.069 231.295 103.429 227.126 102.962 224.193C102.496 221.26 101.753 216.333 101.313 213.246C100.873 210.158 100.119 205.484 99.6372 202.86C99.1552 200.235 98.7607 197.771 98.7602 197.382ZM672.098 293.704C674.999 293.37 685.975 293.913 686.957 294.438C688.332 295.173 690.195 299.52 690.195 301.981C690.195 304.461 688.309 308.022 686.475 309.003C684.589 310.015 684.808 311.127 687.529 314.259C688.843 315.769 689.914 317.279 689.914 317.616C689.914 317.953 688.871 318.305 687.591 318.398C684.858 318.597 683.607 317.619 680.712 313.031C678.955 310.251 676.716 308.791 675.723 309.784C675.504 310 675.314 311.943 675.297 314.102C675.257 318.416 674.853 319.013 672.227 318.627L670.555 318.381V293.882L672.098 293.704ZM725.406 293.633C729.491 292.564 729.519 292.642 729.345 306.175L729.194 318.183L727.404 318.549C726.382 318.758 725.361 318.659 725.019 318.319C724.637 317.936 724.424 313.46 724.424 305.806C724.424 294.929 724.508 293.867 725.406 293.633ZM949.31 305.991L949.158 318.228L946.773 318.401C945.107 318.521 944.377 318.352 944.355 317.839C944.338 317.436 944.349 314.39 944.389 311.07C944.422 307.751 944.243 305.035 943.996 305.035C943.743 305.035 943.188 305.856 942.761 306.86C942.335 307.864 941.482 309.821 940.865 311.211C940.247 312.6 939.277 314.828 938.704 316.161C937.806 318.252 937.459 318.56 936.174 318.406C935.354 318.308 934.473 317.849 934.226 317.386C933.564 316.172 931.353 310.938 929.765 306.83L928.396 303.292L928.239 310.932L928.082 318.572L925.714 318.4L923.346 318.228L923.262 307.131C923.211 301.028 923.307 295.533 923.464 294.92C923.711 293.989 924.238 293.807 926.707 293.807H929.659L930.798 296.474C931.426 297.94 932.751 301.288 933.744 303.912C934.737 306.537 935.725 308.879 935.943 309.117C936.42 309.647 936.864 308.722 940.051 300.544L942.571 294.088L946.016 293.921L949.461 293.753L949.31 305.991ZM667.469 296.895L654.226 297.212L654.563 303.632L659.894 303.772C666.941 303.956 667.867 304.193 667.648 305.757C667.475 306.95 667.2 307.006 660.853 307.158L654.232 307.317L654.563 314.86L661.291 315.14C668.019 315.421 668.019 315.422 668.024 316.825L668.03 318.228L649.939 318.536L649.586 316.768C649.137 314.518 649.137 296.75 649.586 295.07C649.917 293.827 650.068 293.807 658.872 293.807H667.822L667.469 296.895ZM716.849 293.775C718.381 293.15 720.047 293.157 721.057 293.794C721.747 294.233 721.495 294.744 719.598 296.733C716.276 300.222 714.947 301.721 713.37 303.755L711.973 305.562L714.975 309.028C716.624 310.935 718.919 313.43 720.075 314.572C723.004 317.461 722.875 318.509 719.61 318.509C716.849 318.509 717.118 318.707 711.372 312.441C709.902 310.838 708.325 309.526 707.865 309.526C707.046 309.526 706.973 309.995 706.793 316.544C706.754 318.127 706.614 318.228 704.504 318.228H702.259L701.956 293.807H706.468L706.569 296.193C706.625 297.505 706.692 299.59 706.709 300.825C706.754 303.348 707.758 303.614 709.223 301.488C710.783 299.228 715.715 294.239 716.849 293.775ZM310.167 293.608C310.707 293.453 312.033 293.432 313.113 293.561C314.193 293.689 317.934 293.798 321.427 293.801L327.777 293.807L327.422 296.895L313.954 297.456V303.915L319.941 303.914C326.895 303.912 327.702 304.122 327.702 305.937V307.281H313.551L313.875 311.07C314.054 313.154 314.208 314.938 314.218 315.033C314.228 315.129 317.253 315.129 320.941 315.033C327.193 314.872 327.666 314.934 327.932 315.953C328.527 318.238 327.483 318.509 318.095 318.509H309.185V306.199C309.185 294.957 309.27 293.865 310.167 293.608ZM349.969 294.065C350.696 293.339 351.49 293.2 353.415 293.464C354.79 293.653 358.532 293.807 361.729 293.807H367.543V297.176H354.076V303.912H359.336C366.565 303.912 368.104 304.269 368.104 305.948C368.104 307.28 368.099 307.281 361.09 307.281H354.076V315.14L359.266 315.207C362.121 315.244 364.672 315.235 364.936 315.188C366.286 314.946 367.543 315.888 367.543 317.143V318.509H349.76L349.393 310.842C348.789 298.241 348.895 295.14 349.969 294.065ZM423.941 293.807C430.53 293.807 431.522 293.934 432.799 294.939C436.059 297.505 436.196 304.889 433.039 307.907C432.108 308.798 431.131 309.526 430.868 309.526C430.251 309.526 430.243 311.059 430.859 311.304C431.486 311.554 435.439 317.368 435.44 318.041C435.44 318.332 434.252 318.493 432.799 318.399C430.394 318.243 429.994 318.003 428.316 315.702C425.065 311.245 423.215 309.422 422.148 309.626C421.289 309.79 421.106 310.492 420.967 314.164L420.803 318.509H418.648C416.887 318.509 416.43 318.278 416.154 317.246C415.703 315.559 415.707 301.599 416.161 297.258L416.521 293.807H423.941ZM495.481 293.807C496.898 293.807 497.729 294.066 497.736 294.509C497.742 294.895 497.835 300.137 497.945 306.158C498.054 312.178 498.023 317.42 497.875 317.807C497.723 318.202 496.651 318.509 495.421 318.509H493.237V293.807H495.481ZM507.546 294.653C508.839 293.968 510.572 293.799 515.028 293.924C520.785 294.087 520.838 294.101 522.463 295.921C524.273 297.949 524.583 299.832 523.196 300.364C522.691 300.559 520.775 299.933 518.848 298.943C513.847 296.377 511.7 296.521 508.594 299.628C506.229 301.995 506.143 302.202 506.143 305.551C506.143 310.917 507.867 313.432 512.371 314.637C514.815 315.292 515.094 315.239 518.215 313.548C523.186 310.855 525.275 311.332 523.449 314.745C521.817 317.796 519.922 318.509 513.445 318.509C508.696 318.509 508.37 318.428 506.116 316.684C502.644 313.998 501.093 310.851 501.093 306.492C501.093 301.001 503.34 296.877 507.546 294.653ZM568.103 294.529C569.472 293.73 578.944 293.565 580.892 294.306C582.906 295.074 585.706 298.232 586.722 300.887C588.136 304.6 587.648 310.94 585.712 313.86C583.467 317.259 580.42 318.509 574.394 318.509C569.074 318.509 567.452 317.964 564.95 315.331C562.705 312.968 561.695 310.026 561.695 305.873C561.695 300.545 563.614 297.146 568.103 294.529ZM613.881 293.807C615.833 293.807 616.075 293.971 616.417 295.54C616.625 296.492 616.613 302.05 616.389 307.891L615.985 318.509H613.841C612.663 318.509 611.535 318.236 611.327 317.901C610.951 317.287 610.98 306.858 611.378 299.842C611.501 297.64 611.367 296.053 611.053 296.053C610.755 296.053 610.486 296.621 610.447 297.316C610.402 298.266 610.323 298.336 610.127 297.597C609.846 296.526 609.004 296.434 604.482 296.978L601.536 297.332L601.53 307.219C601.524 312.656 601.306 317.439 601.048 317.849C600.761 318.296 599.819 318.52 598.674 318.41L596.766 318.228V297.456L595.083 297.311C589.819 296.859 588.63 296.534 588.63 295.55C588.63 295.003 588.798 294.387 589.006 294.182C589.213 293.976 594.112 293.807 599.897 293.807C607.764 293.807 610.503 293.984 610.75 294.509C611.008 295.07 611.142 295.07 611.4 294.509C611.58 294.123 612.697 293.807 613.881 293.807ZM869.292 293.845C874.342 293.81 874.842 293.909 876.447 295.261C878.377 296.884 878.68 298.551 877.187 299.349C876.48 299.728 875.319 299.499 873.119 298.55C869.477 296.979 866.593 296.817 865.173 298.105C862.861 300.2 864.438 302.264 869.197 303.357C872.945 304.218 876.345 305.869 877.698 307.485C879.415 309.54 878.932 314.547 876.822 316.539C875.369 317.913 872.754 318.509 868.181 318.509C863.871 318.509 863.035 318.339 861.195 317.09C858.288 315.11 857.609 311.772 860.117 311.772C860.639 311.772 862.328 312.444 863.871 313.265C867.311 315.098 870.824 315.312 872.507 313.79C874.079 312.365 873.994 310.974 872.249 309.6C870.863 308.509 869.921 308.147 864.938 306.792C861.442 305.841 859.096 303.32 859.096 300.517C859.096 298.801 861.257 295.149 862.676 294.46C863.333 294.142 866.307 293.866 869.292 293.845ZM797.467 294.039C799.263 293.109 801.642 293 802.152 293.825C802.349 294.143 800.761 296.353 798.628 298.737C796.49 301.12 794.33 303.712 793.825 304.498C792.815 306.065 792.534 305.646 800.587 314.498C803.622 317.838 803.628 318.509 800.598 318.506C797.854 318.503 796.692 317.663 792.596 312.73C788.988 308.377 788.197 308.592 787.832 314.023L787.552 318.228H783.063L782.911 306.198C782.793 296.954 782.922 294.06 783.472 293.702C783.865 293.446 784.819 293.301 785.588 293.381C786.951 293.523 786.996 293.661 787.153 298.439C787.243 301.14 787.557 303.35 787.86 303.351C788.158 303.351 788.966 302.669 789.661 301.836C792.927 297.9 796.07 294.76 797.467 294.039ZM817.847 294.433C819.626 293.565 828.548 293.689 830.759 294.612C833.02 295.559 833.941 297.882 832.588 299.235C831.842 299.984 831.444 299.938 829.008 298.826C825.159 297.066 821.775 296.755 820.361 298.03C817.976 300.193 819.435 302.152 824.306 303.322C828.009 304.211 831.522 305.904 832.863 307.448C833.525 308.212 833.845 309.519 833.845 311.495C833.845 313.962 833.587 314.682 832.184 316.15C830.164 318.269 828.015 318.727 821.663 318.393C817.09 318.153 816.759 318.047 815.244 316.35C811.944 312.657 813.987 310.766 818.644 313.202C820.198 314.017 822.454 314.814 823.649 314.974C825.495 315.222 826.113 315.013 827.667 313.624C829.233 312.225 829.418 311.81 828.89 310.832C828.178 309.493 823.806 307.483 820.44 306.945C817.168 306.422 814.205 303.435 814.205 300.663C814.205 298.449 816.04 295.313 817.847 294.433ZM745.455 293.827C748.817 293.839 751.549 294.122 752.245 294.529C756.813 297.193 758.3 299.889 758.339 305.597C758.378 310.613 757.06 314.603 754.995 315.709C754.231 316.118 753.603 316.651 753.603 316.893C753.603 318.437 742.049 319.101 738.856 317.74C734.928 316.067 732.684 311.745 732.667 305.805C732.656 302.457 732.903 301.382 734.171 299.216C735.001 297.793 736.617 295.994 737.762 295.217C739.642 293.939 740.36 293.809 745.455 293.827ZM448.346 293.62C450.62 293.282 455.804 293.904 457.398 294.707C461.014 296.53 463.691 301.28 463.691 305.877C463.692 310.314 462.119 313.798 458.999 316.271C456.713 318.082 456.302 318.196 451.34 318.413C445.063 318.689 443.517 318.166 440.522 314.763C437.733 311.593 436.814 308.088 437.623 303.71C438.27 300.208 439.37 298.197 441.882 295.921C443.437 294.513 444.213 294.236 448.346 293.62ZM764.265 294.734C765.426 293.912 766.627 293.772 771.279 293.915C776.161 294.065 777.12 294.262 778.669 295.424C780.089 296.489 780.358 297 780.01 297.95C779.415 299.583 777.182 299.736 774.432 298.332C771.514 296.844 768.535 296.831 767.07 298.298C764.899 300.469 766.116 302.152 770.718 303.349C774.533 304.341 777.743 305.821 779.342 307.325C780.532 308.44 780.638 308.917 780.358 311.677C780.1 314.148 779.685 315.128 778.315 316.503C776.66 318.16 776.374 318.236 771.066 318.419C766.318 318.583 765.213 318.443 763.226 317.429C760.522 316.048 759.63 313.919 761.133 312.426C762.009 311.554 762.261 311.595 764.876 313.049C766.419 313.907 768.776 314.758 770.117 314.941C772.283 315.238 772.743 315.09 774.298 313.603C776.385 311.61 776.441 311.176 774.786 310.099C772.306 308.485 771.122 307.984 768.136 307.282C762.312 305.915 761.178 304.816 761.178 300.544C761.178 297.28 761.487 296.698 764.265 294.734ZM382.326 293.811C387.016 293.808 388.097 293.982 389.482 294.969C391.52 296.422 392.398 298.015 391.945 299.443C391.399 301.164 388.352 300.671 386.194 298.513C385.792 298.111 384.563 297.612 383.463 297.406C378.35 296.446 374.321 300.074 374.218 305.729C374.131 310.508 375.425 312.695 379.232 314.205C381.996 315.3 384.329 314.928 387.113 312.945C388.018 312.3 389.414 311.772 390.215 311.772C391.442 311.772 391.672 312.025 391.672 313.37C391.672 316.963 388.473 318.493 381.01 318.468C375.893 318.452 373.673 317.469 371.306 314.169C369.833 312.116 369.568 311.184 369.342 307.283C368.954 300.575 370.567 297.058 375.118 294.69C376.308 294.07 378.419 293.814 382.326 293.811ZM469.694 293.807C472.431 293.807 473.6 294.864 478.086 301.386C480.019 304.197 480.721 305.114 482.978 307.778L484.224 309.246L484.373 306.158C484.455 304.46 484.526 301.049 484.531 298.579L484.539 294.088H489.028V318.228L487.712 318.415C485.107 318.783 483.44 317.379 478.758 310.872C476.195 307.311 473.819 303.783 473.478 303.032C473.135 302.281 472.707 301.666 472.525 301.666C472.343 301.666 472.194 305.393 472.194 309.947V318.228H467.312L467.354 306.439C467.377 299.955 467.402 294.46 467.41 294.228C467.418 293.996 468.446 293.807 469.694 293.807ZM899.958 295.351C899.784 296.845 899.655 296.9 896.002 297.06L892.226 297.227L892.074 307.727L891.923 318.228L889.891 318.398C888.017 318.555 887.838 318.436 887.506 316.784C887.316 315.803 887.153 310.989 887.153 306.088V297.176L885.329 297.094C884.325 297.049 882.748 297.053 881.822 297.101C879.578 297.22 878.708 296.564 879.101 295.051C879.426 293.825 879.566 293.807 889.779 293.807H900.132L899.958 295.351ZM403.956 293.807C413.334 293.807 414.599 293.915 414.917 294.743C415.461 296.163 414.413 296.811 411.752 296.699C410.429 296.644 408.659 296.748 407.816 296.929L406.286 297.259L406.133 307.744L405.98 318.228L403.596 318.401C401.926 318.522 401.204 318.353 401.187 317.839C401.175 317.436 401.184 312.655 401.209 307.216L401.255 297.325L399.479 296.97C398.503 296.775 396.725 296.614 395.529 296.614C393.584 296.614 393.355 296.467 393.355 295.211V293.807H403.956ZM629.514 293.807C637.246 293.807 638.498 293.93 638.801 294.721C639.553 296.68 638.133 297.176 631.77 297.176H625.664V303.807L630.978 304.207C633.902 304.426 636.663 304.465 637.112 304.292C638.369 303.81 639.44 305.389 638.571 306.439C638.026 307.097 636.477 307.281 631.478 307.281H625.086L625.356 312.193C625.502 314.895 625.418 317.439 625.165 317.846C624.879 318.311 623.897 318.52 622.522 318.407L620.334 318.228L620.182 306.735C620.098 300.413 620.154 294.918 620.306 294.524C620.513 293.984 622.786 293.807 629.514 293.807ZM538.29 293.807C539.626 293.807 541.102 294.123 541.571 294.509C542.797 295.519 546.235 300.043 550.744 306.579C551.862 308.2 552.999 309.526 553.271 309.526C553.542 309.525 553.697 306.305 553.614 302.369C553.532 298.431 553.576 294.895 553.711 294.509C553.853 294.109 554.905 293.807 556.155 293.807H558.35L558.2 306.018L558.048 318.228L555.976 318.401C554.516 318.522 553.604 318.261 552.889 317.517C550.717 315.257 548.789 312.885 548.789 312.473C548.789 312.235 548.221 311.407 547.527 310.631C545.601 308.48 542.617 304.085 542.617 303.4C542.617 303.064 542.511 302.79 542.382 302.79C542.253 302.79 541.811 302.66 541.4 302.502C540.799 302.271 540.653 303.784 540.653 310.221V318.228H536.164L535.861 293.807H538.29ZM335.558 315.101L341.31 315.262C347.028 315.421 347.061 315.429 347.061 316.825V318.228L338.785 318.384C334.233 318.469 330.5 318.343 330.491 318.103C330.142 309.135 330.018 296.51 330.266 295.351C330.566 293.95 330.826 293.807 333.077 293.807H335.558V315.101ZM642.908 293.916L645.585 294.088L645.304 318.228H640.535L640.383 305.986L640.231 293.745L642.908 293.916ZM836.887 293.807C839.614 293.807 839.642 293.831 844.086 300.225C845.831 302.74 846.516 303.358 846.875 302.751C847.133 302.309 848.418 300.179 849.731 298.018L852.11 294.088H854.905C858.097 294.088 858.356 294.631 856.291 296.982C853.749 299.881 849.613 306.416 848.71 308.975C848.165 310.512 847.885 312.802 847.986 314.86L848.154 318.228H843.783L843.716 313.009C843.676 310.036 843.39 307.62 843.053 307.395C842.728 307.178 841.97 306.116 841.376 305.035C840.786 303.955 840.152 302.944 839.967 302.79C838.985 301.949 834.406 295.158 834.406 294.538C834.406 294.049 835.226 293.807 836.887 293.807ZM903.566 293.608C904.262 293.456 906.473 293.436 908.476 293.565C910.485 293.694 913.969 293.801 916.231 293.803L920.333 293.807L919.979 296.895L906.512 297.206L906.703 300.542L906.888 303.878L913.436 304.035L919.979 304.193L920.333 307.281H906.501L906.445 310.79C906.417 312.794 906.658 314.475 907.011 314.711C907.354 314.938 910.49 315.127 913.986 315.132L920.333 315.14L919.979 318.228H902.023L901.866 307.281C901.776 301.26 901.838 295.783 902.006 295.109C902.169 294.436 902.87 293.761 903.566 293.608ZM454.383 298.296C451.207 296.358 446.024 297.268 444.228 300.078C442.49 302.799 441.957 305.904 442.744 308.717C444.424 314.721 451.096 316.803 455.641 312.742C459.948 308.893 459.286 301.286 454.383 298.296ZM748.777 297.958C742.919 295.509 737.953 299.046 737.773 305.799C737.661 310.163 739.154 312.752 742.56 314.091C748.755 316.525 753.603 312.729 753.603 305.441C753.603 302.081 751.746 299.198 748.777 297.958ZM577.71 297.745C573.821 296.267 569.871 297.618 567.935 301.087C566.801 303.123 566.644 304.008 566.886 307.034C567.25 311.588 568.76 313.61 572.43 314.476C577.048 315.567 580.28 313.88 582.148 309.396C583.237 306.793 583.248 305.129 582.188 302.718C581.06 300.154 579.506 298.428 577.71 297.745ZM639.283 309.526C639.283 308.137 639.395 307.569 639.53 308.263C639.659 308.958 639.659 310.095 639.53 310.79C639.395 311.484 639.283 310.916 639.283 309.526ZM429.007 298.082C427.627 297.178 421.983 296.792 421.225 297.55C420.757 298.018 420.731 304.069 421.191 305.27C421.633 306.422 425.764 306.465 428.444 305.345C430.292 304.573 430.39 304.391 430.39 301.76C430.39 299.434 430.168 298.843 429.007 298.082ZM675.325 305.877L677.805 306.055C682.754 306.408 684.584 305.149 684.584 301.378C684.584 299.478 684.303 298.726 683.338 298.05C682.53 297.482 680.846 297.176 678.546 297.176H674.999L675.325 305.877ZM702.82 122.953C707.197 122.418 721.4 122.685 726.798 123.403C730.108 123.844 735.159 125.004 738.02 125.981C744.529 128.204 754.293 133.2 757.25 135.823C758.485 136.917 760.724 138.869 762.233 140.161C774.556 150.738 781.834 163.367 785.257 180.123C788.545 196.211 786.452 213.466 779.578 226.879C777.917 230.119 775.835 233.816 774.96 235.093C773.063 237.852 763.883 247.277 760.41 250.036C757.739 252.156 748.727 257.876 748.053 257.877C747.829 257.877 746.392 258.475 744.872 259.204C741.32 260.907 732.252 263.229 725.81 264.088C722.673 264.505 717.073 264.65 710.957 264.471C702.736 264.231 700.222 263.943 695.526 262.699C680.459 258.71 673.075 254.305 660.965 242.082C647.739 228.738 641.32 213.53 641.314 195.518C641.303 178.998 646.241 164.058 656.134 150.649C660.69 144.48 663.58 141.539 669.758 136.778C680.566 128.449 689.948 124.527 702.82 122.953ZM897.624 124.825C903.409 124.825 907.427 125.048 907.634 125.382C907.937 125.877 903.257 130.623 896.215 136.948C894.874 138.154 892.602 140.277 891.165 141.667C889.723 143.056 887.159 145.424 885.464 146.929C883.769 148.433 880.722 151.212 878.697 153.104C876.671 154.996 872.137 159.197 868.624 162.439C865.112 165.681 861.245 169.254 860.033 170.38L857.822 172.426L859.685 175.713C860.707 177.521 861.7 179.126 861.891 179.281C862.081 179.435 862.979 180.825 863.888 182.369C864.792 183.912 865.791 185.59 866.105 186.097C866.413 186.604 867.631 188.625 868.804 190.588C869.982 192.551 871.873 195.6 873.012 197.361C874.157 199.124 876.952 203.545 879.23 207.186C881.514 210.828 884.179 215.07 885.166 216.614C886.148 218.158 887.664 220.684 888.539 222.228C890.632 225.941 896.889 236.012 899.588 240.022C900.772 241.78 901.742 243.464 901.742 243.765C901.742 244.065 901.972 244.394 902.253 244.497C903.308 244.886 913.638 262.311 913.341 263.202C913.229 263.546 909.688 263.833 904.397 263.926L895.643 264.081L894.201 262.529C893.41 261.675 892.764 260.755 892.764 260.484C892.764 260.214 891.816 258.706 890.66 257.133C889.504 255.56 888.303 253.844 887.995 253.318C884.084 246.655 871.503 226.987 869.904 225.035C868.927 223.841 865.83 218.536 865.83 218.056C865.83 217.777 865.633 217.466 865.392 217.363C865.145 217.258 863.462 214.774 861.649 211.842C857.923 205.822 849.697 193.107 847.251 189.576C846.358 188.29 845.629 187.002 845.629 186.715C845.629 186.427 845.124 185.734 844.507 185.176C843.508 184.269 843.278 184.25 842.402 184.996C841.864 185.457 839.518 187.454 837.195 189.435C834.872 191.415 831.651 194.14 830.041 195.49L827.112 197.945V230.326C827.112 254.762 826.949 262.871 826.438 263.38C825.989 263.827 823.543 264.053 819.149 264.053H812.533L812.387 194.86C812.309 156.803 812.32 125.478 812.416 125.246C812.511 125.014 815.732 124.825 819.57 124.825C823.408 124.825 826.556 125.014 826.562 125.246C826.567 125.478 826.595 137.351 826.618 151.632C826.64 165.913 826.87 177.597 827.128 177.597C827.381 177.596 827.931 177.281 828.346 176.895C829.193 176.108 837.683 168.578 840.293 166.3C842.588 164.298 859.972 149.045 862.671 146.668C863.866 145.615 865.527 144.123 866.368 143.351C867.21 142.579 869.135 140.897 870.65 139.611C872.165 138.325 873.933 136.81 874.584 136.243C881.042 130.588 883.578 128.34 884.347 127.597C887.142 124.903 887.518 124.825 897.624 124.825ZM505.507 123.14C506.167 123.14 509.274 126.052 511.852 129.085C513.187 130.655 515.333 133.182 516.622 134.699C517.909 136.215 519.677 138.234 520.549 139.186C521.421 140.137 523.65 142.661 525.502 144.795C527.354 146.928 529.898 149.813 531.155 151.206C534.059 154.42 535.836 156.454 541.216 162.719C547.441 169.969 550.716 173.739 552.232 175.403C554.294 177.665 556.652 180.373 560.01 184.339C561.706 186.343 564.871 190.004 567.048 192.474C569.22 194.944 571.622 197.694 572.379 198.584C574.068 200.562 573.973 200.453 578.838 205.961C581.015 208.424 584.146 212.081 585.796 214.088C588.742 217.679 594.454 224.204 598.029 228.067L599.847 230.035L600.133 124.544L605.744 124.38C608.83 124.29 611.922 124.358 612.618 124.531L613.881 124.846V193.561C613.881 231.355 613.729 262.677 613.538 263.165C613.353 263.653 612.736 264.053 612.164 264.053C611.019 264.053 610.172 263.274 605.099 257.556C603.202 255.417 601.053 253.018 600.329 252.226C598.865 250.626 593.309 244.34 591.435 242.158C590.768 241.386 589.426 239.868 588.444 238.785C587.468 237.702 584.011 233.786 580.774 230.084C577.536 226.381 574.629 223.075 574.321 222.736C572.188 220.395 566.947 214.342 565.965 213.089C565.314 212.256 564.405 211.18 563.94 210.7C562.587 209.297 557.34 203.183 555.958 201.404C555.261 200.506 554.284 199.393 553.787 198.93C553.352 198.525 551.943 196.932 550.481 195.203L549.227 193.71C547.768 191.979 546.367 190.379 545.942 189.965C545.456 189.492 544.159 187.969 543.059 186.579C541.96 185.19 539.959 182.874 538.612 181.433C537.266 179.993 535.154 177.598 533.919 176.111C531.563 173.274 525.111 165.954 521.651 162.192L519.616 159.98L519.473 211.595L519.33 263.211H504.74L504.573 196.684C504.482 160.095 504.565 128.579 504.759 126.649C504.952 124.72 505.289 123.14 505.507 123.14ZM929.081 124.605C929.715 123.974 942.369 124.894 942.84 125.604C943.395 126.464 943.384 262.791 942.829 263.135C942.026 263.631 931.606 264.205 930.13 263.834L928.677 263.471V194.241C928.677 156.17 928.862 124.837 929.081 124.605ZM305.635 124.634C305.845 124.426 323.835 124.321 345.615 124.4L385.219 124.544L385.376 131.702L385.533 138.86H319.846V181.526L332.612 181.667C339.634 181.744 348.488 181.807 352.29 181.807C357.855 181.807 359.291 181.971 359.661 182.649C359.912 183.112 360.085 185.964 360.043 188.986C359.985 193.198 359.771 194.604 359.126 195.012C358.639 195.32 350.326 195.548 339.432 195.553L320.579 195.562L320.215 201.877C319.876 207.769 319.678 248.739 319.987 249.024C320.065 249.095 334.773 249.284 352.673 249.445L385.219 249.737L385.377 256.318L385.534 262.9L383.974 263.292C381.9 263.814 307.5 263.887 306.239 263.368C305.311 262.987 305.257 259.152 305.257 193.988C305.257 156.051 305.427 124.842 305.635 124.634ZM724.39 137.534C718.038 136.408 712.399 136.076 708.993 136.629C707.45 136.88 704.672 137.332 702.82 137.633C697.91 138.43 690.565 141.343 684.034 145.081C681.037 146.795 672.295 154.111 670.235 156.629C665.595 162.293 661.061 170.593 658.519 178.082C655.573 186.738 655.337 201.498 658.003 210.398C658.738 212.852 660.718 217.653 662.413 221.069C667.57 231.479 675.022 238.562 687.109 244.549C694.768 248.341 695.643 248.674 700.856 249.752C706.591 250.939 719.329 250.923 725.546 249.721C728.172 249.214 730.568 248.609 730.877 248.376C731.186 248.143 733.587 247.105 736.208 246.068C745.175 242.525 753.519 236.547 759.31 229.526C763.327 224.653 768.827 213.803 770.544 207.351C772.261 200.932 772.401 186.103 770.807 180.404C767.076 167.063 759.299 155.645 748.817 148.108C742.324 143.439 731.668 138.825 724.39 137.534ZM414.303 191.393C414.466 190.972 422.155 190.833 439.717 190.932C453.567 191.01 465.215 191.073 465.601 191.072C466.115 191.071 466.302 192.554 466.302 196.621V202.171L464.64 202.415C463.726 202.549 452.048 202.641 438.688 202.619L414.397 202.579L414.235 197.288C414.146 194.378 414.176 191.725 414.303 191.393ZM67.6565 0.75438C68.2962 0.0112904 79.3382 -0.0722907 161.649 0.0416629C212.939 0.112388 255.03 0.295775 255.198 0.448461C255.351 0.601724 255.217 1.04944 254.9 1.44298C254.583 1.83677 253.66 4.01443 252.848 6.28289C251.553 9.90232 248.061 18.1873 244.529 26.0175C243.903 27.407 242.646 30.4386 241.737 32.7544C240.828 35.0701 239.573 38.0884 238.948 39.4622C238.323 40.8354 237.105 43.8669 236.244 46.199C234.464 51.0164 229.924 62.0205 222.799 78.7896C220.109 85.1189 217.077 92.4452 216.06 95.0703C212.435 104.427 208.602 113.921 207.333 116.684C206.624 118.228 205.243 121.386 204.264 123.702C203.285 126.017 202.145 128.67 201.731 129.597C201.317 130.523 199.937 133.933 198.663 137.176C197.39 140.418 195.979 143.741 195.531 144.56C195.081 145.38 194.716 146.39 194.72 146.806C194.729 147.833 196.901 143.226 199.921 135.772C201.298 132.376 203.593 127.006 205.022 123.839C206.451 120.672 207.62 117.974 207.62 117.843C207.62 117.712 208.354 116.008 209.252 114.057C210.15 112.106 212.444 106.375 214.349 101.323C216.255 96.2717 218.564 90.4612 219.48 88.4109C220.395 86.3613 221.626 83.5475 222.215 82.158C222.803 80.768 224.692 76.3958 226.412 72.4413C228.132 68.4862 230.569 62.6757 231.826 59.529C233.084 56.3818 234.454 53.0491 234.871 52.1228C235.287 51.196 236.75 47.533 238.119 43.9824C240.314 38.2978 243.056 31.7177 245.475 26.3306C245.9 25.3869 247.416 21.8351 248.846 18.4386C252.384 10.0317 254.22 6.36839 254.895 6.36839C255.262 6.36839 255.372 8.99818 255.206 13.807L254.95 21.2456L251.512 29.6666C249.621 34.2982 247.287 39.9824 246.325 42.2982C245.363 44.6139 244.111 47.7719 243.542 49.3158C240.683 57.0773 234.373 73.6589 233.716 75.1405C231.559 79.9994 221.972 103.687 219.402 110.509C217.774 114.831 216.006 119.379 215.474 120.614C214.942 121.849 213.805 124.755 212.947 127.07C212.089 129.386 211.214 131.532 211.001 131.842C210.788 132.151 210.032 134.046 209.321 136.053C208.609 138.06 207.456 140.965 206.758 142.509C206.06 144.053 203.813 149.611 201.764 154.86C199.715 160.108 197.801 164.908 197.511 165.526C197.221 166.144 196.572 167.9 196.069 169.428C195.566 170.956 194.58 173.483 193.877 175.042C193.175 176.601 192.032 179.519 191.337 181.526C190.642 183.533 189.491 186.5 188.778 188.12L187.483 191.064L94.3025 191.207C43.0535 191.286 0.869758 191.267 0.561134 191.164C0.211032 191.047 0 186.561 0 179.234V167.491H92.7818C180.347 167.491 185.627 167.436 186.678 166.509C187.291 165.969 187.937 164.957 188.115 164.26L188.438 162.994L94.6397 163.007C12.4008 163.018 0.819783 162.918 0.664703 162.191C0.567065 161.736 1.00924 160.184 1.64669 158.742C2.28411 157.3 2.80567 155.774 2.80567 155.35C2.80575 154.926 3.05823 154.579 3.3668 154.579C3.67543 154.579 3.92794 154.238 3.92794 153.821C3.92797 153.404 5.5922 149.172 7.6257 144.417C11.5722 135.192 12.029 134.115 14.0272 129.316C14.7348 127.618 15.9079 124.895 16.6345 123.266C17.3612 121.636 17.9563 120.064 17.9563 119.772C17.9567 119.479 18.6181 117.781 19.4265 115.998C22.0726 110.161 22.4453 109.226 22.4454 108.432C22.4454 107.999 22.6627 107.405 22.9282 107.112C23.1937 106.818 23.8745 105.252 24.4417 103.632C25.0083 102.011 25.6471 100.684 25.8604 100.684C26.0736 100.684 26.4071 99.8389 26.6007 98.8059C26.7943 97.7724 27.424 95.9411 27.9997 94.7357C30.3419 89.8307 31.9567 86.0749 35.6994 76.8247C37.0736 73.4282 38.5504 69.8914 38.9807 68.9651C39.4118 68.0382 40.5773 65.1329 41.5716 62.5089C42.5659 59.8844 43.593 57.4973 43.8545 57.2042C44.116 56.9106 44.3381 56.2785 44.3488 55.8004C44.3594 55.3215 44.8554 53.9193 45.4519 52.6842C46.0483 51.4492 46.5443 50.2467 46.5549 50.0115C46.5658 49.7766 47.0627 48.5135 47.6602 47.2045C48.2578 45.8959 49.4208 43.1824 50.2439 41.1754C51.0672 39.1683 52.7251 35.4274 53.9275 32.8618C55.1296 30.2972 56.1127 28.0734 56.1134 27.9189C56.1134 27.7656 56.5859 26.5803 57.1638 25.2851C57.7413 23.9899 58.7592 21.414 59.4258 19.5614C60.5155 16.5333 61.525 14.1508 62.9295 11.2889C63.1927 10.7528 63.4081 10.0583 63.4081 9.74613C63.4081 8.93154 66.7991 1.75536 67.6565 0.75438ZM192.101 154.884C192.481 153.895 192.158 153.721 191.604 154.617C191.401 154.946 191.355 155.336 191.502 155.483C191.649 155.63 191.919 155.361 192.101 154.884ZM194.01 149.197C193.856 149.043 193.567 149.343 193.367 149.863C193.167 150.384 193.13 150.936 193.284 151.091C193.439 151.245 193.728 150.945 193.928 150.425C194.128 149.904 194.165 149.352 194.01 149.197ZM78.2782 15.3706L77.0392 18.028C75.0629 22.2665 71.9464 29.6718 68.9521 37.2456C67.4259 41.105 65.9568 44.7681 65.6863 45.3859C65.4164 46.0035 63.7358 50.172 61.9514 54.6491C60.167 59.1265 58.3759 63.2881 57.9713 63.8973C57.5667 64.5058 57.2357 65.3142 57.2357 65.6926C57.2351 66.071 56.3811 68.2246 55.3369 70.4792C54.2926 72.7343 52.2465 77.4843 50.7898 81.0352C49.3338 84.5855 47.8113 88.2487 47.4059 89.1756C47.0008 90.1019 44.4778 96.2914 41.8001 102.93C39.1219 109.568 36.4876 116.01 35.9471 117.246C35.4062 118.481 34.2352 121.26 33.3453 123.421C32.4557 125.581 31.5337 127.434 31.2953 127.538C31.0574 127.641 30.8625 128.042 30.8624 128.428C30.8624 128.814 29.8368 131.635 28.5833 134.697C25.3299 142.644 23.9578 146.736 24.3995 147.178C24.6222 147.389 58.8719 147.562 100.522 147.562H176.26L177.317 146.161C177.897 145.39 179.13 142.864 180.054 140.547C181.616 136.633 186.184 125.987 187.403 123.421C187.697 122.803 189.314 118.887 190.999 114.719C195.436 103.739 204.514 81.6449 205.532 79.351C206.011 78.2703 206.815 76.3756 207.319 75.1405C207.823 73.9054 208.475 72.457 208.769 71.9203C209.063 71.3841 209.303 70.5628 209.303 70.0957C209.303 69.6281 209.556 69.2458 209.864 69.2458C210.173 69.2458 210.425 68.8752 210.425 68.4227C210.425 67.9702 210.794 66.77 211.246 65.7561C211.698 64.7422 213.242 60.8808 214.676 57.1756C216.111 53.4703 217.747 49.428 218.311 48.193C218.876 46.9578 220.259 43.6735 221.384 40.8947C225.472 30.7976 227.217 26.6309 227.776 25.6327C228.63 24.109 231.748 16.4321 231.748 15.8536C231.748 15.5606 199.82 15.3551 155.013 15.3613L78.2782 15.3706ZM197.362 39.6315C196.952 41.4247 194.852 47.0658 193.574 49.8026C192.978 51.0786 192.005 53.5123 191.411 55.2105C189.928 59.4465 186.152 68.9841 184.743 72.0528C184.105 73.4422 182.453 77.358 181.071 80.7545C178.447 87.2017 177.239 90.2709 170.577 107.421C168.358 113.133 166.19 118.603 165.758 119.576C165.326 120.549 164.973 121.623 164.973 121.962C164.973 122.302 164.406 122.583 163.711 122.588C147.645 122.697 59.8332 122.503 59.6334 122.358C59.5212 122.246 60.8297 118.607 62.5412 114.272C64.2527 109.936 65.6527 106.116 65.6527 105.782C65.6527 105.449 65.9052 105.176 66.2138 105.176C66.5224 105.176 66.775 104.779 66.775 104.294C66.775 103.81 67.5106 101.599 68.4101 99.3819C69.309 97.1649 71.14 92.5721 72.4783 89.1756C73.8166 85.7791 75.1011 82.9159 75.3322 82.8132C75.5634 82.7099 75.7531 82.2765 75.7531 81.8498C75.7531 81.4226 76.1089 80.2437 76.5437 79.2298C76.978 78.2159 78.0852 75.4914 79.0037 73.1756C79.9223 70.8598 81.3347 67.3229 82.1427 65.3159C82.9508 63.3089 83.6112 61.3721 83.6107 61.0117C83.6095 60.6518 83.7992 60.2728 84.0321 60.1695C84.2649 60.0662 85.064 58.2136 85.8081 56.0526C86.5516 53.8913 87.7501 50.8127 88.4706 49.2116C89.1917 47.6105 89.7814 46.0638 89.7814 45.7741C89.7814 45.0633 92.0299 39.9471 92.7274 39.0701C93.1685 38.5179 104.398 38.3684 145.468 38.3684H197.65L197.362 39.6315Z" fill="#1447E6"/>
<path d="M306.202 98V68.9091H313.233V81.2102H313.616L323.233 68.9091H331.514L321.202 81.892L331.699 98H323.29L316.045 86.5653L313.233 90.1165V98H306.202ZM335.255 98V76.1818H342.201V98H335.255ZM338.735 73.6392C337.76 73.6392 336.921 73.3172 336.221 72.6733C335.52 72.0199 335.17 71.2339 335.17 70.3153C335.17 69.4062 335.52 68.6297 336.221 67.9858C336.921 67.3324 337.76 67.0057 338.735 67.0057C339.72 67.0057 340.558 67.3324 341.249 67.9858C341.95 68.6297 342.3 69.4062 342.3 70.3153C342.3 71.2339 341.95 72.0199 341.249 72.6733C340.558 73.3172 339.72 73.6392 338.735 73.6392ZM356.407 98.4119C354.115 98.4119 352.145 97.9432 350.498 97.0057C348.859 96.0587 347.595 94.7424 346.705 93.0568C345.824 91.3617 345.384 89.3968 345.384 87.1619C345.384 84.9176 345.824 82.9527 346.705 81.267C347.595 79.572 348.859 78.2557 350.498 77.3182C352.145 76.3712 354.115 75.8977 356.407 75.8977C358.698 75.8977 360.663 76.3712 362.302 77.3182C363.949 78.2557 365.213 79.572 366.094 81.267C366.984 82.9527 367.429 84.9176 367.429 87.1619C367.429 89.3968 366.984 91.3617 366.094 93.0568C365.213 94.7424 363.949 96.0587 362.302 97.0057C360.663 97.9432 358.698 98.4119 356.407 98.4119ZM356.449 93.1705C357.283 93.1705 357.988 92.9148 358.566 92.4034C359.143 91.892 359.584 91.1818 359.887 90.2727C360.199 89.3636 360.356 88.3125 360.356 87.1193C360.356 85.9072 360.199 84.8466 359.887 83.9375C359.584 83.0284 359.143 82.3182 358.566 81.8068C357.988 81.2955 357.283 81.0398 356.449 81.0398C355.588 81.0398 354.858 81.2955 354.262 81.8068C353.675 82.3182 353.225 83.0284 352.912 83.9375C352.609 84.8466 352.458 85.9072 352.458 87.1193C352.458 88.3125 352.609 89.3636 352.912 90.2727C353.225 91.1818 353.675 91.892 354.262 92.4034C354.858 92.9148 355.588 93.1705 356.449 93.1705ZM389.636 82.8438L383.258 83.0142C383.192 82.5597 383.012 82.1572 382.718 81.8068C382.425 81.447 382.041 81.1676 381.568 80.9688C381.104 80.7604 380.564 80.6562 379.948 80.6562C379.144 80.6562 378.457 80.8172 377.889 81.1392C377.33 81.4612 377.055 81.8968 377.065 82.446C377.055 82.8722 377.226 83.2415 377.576 83.554C377.936 83.8665 378.575 84.1174 379.494 84.3068L383.698 85.1023C385.876 85.5189 387.496 86.2102 388.556 87.1761C389.626 88.142 390.166 89.4205 390.176 91.0114C390.166 92.5076 389.721 93.8097 388.84 94.9176C387.969 96.0256 386.776 96.8873 385.261 97.5028C383.746 98.1089 382.013 98.4119 380.062 98.4119C376.947 98.4119 374.489 97.7727 372.69 96.4943C370.9 95.2064 369.877 93.483 369.622 91.3239L376.483 91.1534C376.634 91.9489 377.027 92.5549 377.662 92.9716C378.296 93.3883 379.106 93.5966 380.09 93.5966C380.981 93.5966 381.705 93.4309 382.264 93.0994C382.822 92.768 383.107 92.3277 383.116 91.7784C383.107 91.286 382.889 90.893 382.463 90.5994C382.037 90.2964 381.369 90.0597 380.46 89.8892L376.653 89.1648C374.465 88.767 372.837 88.0331 371.767 86.9631C370.697 85.8835 370.166 84.5104 370.176 82.8438C370.166 81.3854 370.555 80.1402 371.34 79.108C372.126 78.0663 373.244 77.2708 374.693 76.7216C376.142 76.1723 377.851 75.8977 379.821 75.8977C382.775 75.8977 385.105 76.518 386.809 77.7585C388.514 78.9896 389.456 80.6847 389.636 82.8438ZM399.46 92.2756L399.488 83.9943H400.454L406.59 76.1818H414.46L405.34 87.375H403.508L399.46 92.2756ZM393.195 98V68.9091H400.141V98H393.195ZM406.747 98L401.036 88.9375L405.61 84.0085L414.772 98H406.747ZM431.77 68.9091V98H424.739V68.9091H431.77ZM442.731 85.5568V98H435.785V76.1818H442.39V80.1875H442.631C443.114 78.8523 443.938 77.8059 445.103 77.0483C446.267 76.2812 447.655 75.8977 449.265 75.8977C450.799 75.8977 452.129 76.2434 453.256 76.9347C454.392 77.6165 455.273 78.5729 455.898 79.804C456.533 81.0256 456.845 82.4555 456.836 84.0938V98H449.89V85.4574C449.899 84.2453 449.591 83.2983 448.966 82.6165C448.351 81.9347 447.494 81.5938 446.395 81.5938C445.666 81.5938 445.022 81.7547 444.463 82.0767C443.914 82.3892 443.488 82.839 443.185 83.4261C442.892 84.0133 442.74 84.7235 442.731 85.5568ZM473.051 76.1818V81.2955H459.287V76.1818H473.051ZM462.171 70.9545H469.117V91.1392C469.117 91.5653 469.183 91.911 469.316 92.1761C469.458 92.4318 469.661 92.6165 469.926 92.7301C470.192 92.8343 470.509 92.8864 470.878 92.8864C471.143 92.8864 471.423 92.8627 471.716 92.8153C472.019 92.7585 472.246 92.7112 472.398 92.6733L473.449 97.6875C473.118 97.7822 472.649 97.9006 472.043 98.0426C471.446 98.1847 470.731 98.2746 469.898 98.3125C468.269 98.3883 466.872 98.1989 465.708 97.7443C464.552 97.2803 463.667 96.5606 463.051 95.5852C462.445 94.6098 462.152 93.3835 462.171 91.9062V70.9545ZM486.16 98.4119C483.878 98.4119 481.908 97.9621 480.251 97.0625C478.603 96.1534 477.334 94.8608 476.444 93.1847C475.563 91.4991 475.123 89.4962 475.123 87.1761C475.123 84.9223 475.568 82.9527 476.458 81.267C477.348 79.572 478.603 78.2557 480.222 77.3182C481.842 76.3712 483.75 75.8977 485.947 75.8977C487.5 75.8977 488.92 76.1392 490.208 76.6222C491.496 77.1051 492.609 77.8201 493.546 78.767C494.484 79.714 495.213 80.8835 495.734 82.2756C496.255 83.6581 496.515 85.2443 496.515 87.0341V88.767H477.552V84.733H490.052C490.043 83.9943 489.867 83.3362 489.526 82.7585C489.186 82.1809 488.717 81.7311 488.12 81.4091C487.533 81.0777 486.856 80.9119 486.089 80.9119C485.312 80.9119 484.616 81.0871 484.001 81.4375C483.385 81.7784 482.898 82.2472 482.538 82.8438C482.178 83.4309 481.989 84.0985 481.97 84.8466V88.9517C481.97 89.8419 482.145 90.6231 482.495 91.2955C482.846 91.9583 483.343 92.4744 483.987 92.8438C484.631 93.2131 485.398 93.3977 486.288 93.3977C486.903 93.3977 487.462 93.3125 487.964 93.142C488.466 92.9716 488.897 92.7206 489.257 92.3892C489.616 92.0578 489.886 91.6506 490.066 91.1676L496.444 91.3523C496.179 92.7822 495.596 94.0275 494.697 95.0881C493.807 96.1392 492.637 96.9583 491.188 97.5455C489.739 98.1231 488.063 98.4119 486.16 98.4119ZM499.663 98V76.1818H506.41V80.1591H506.637C507.035 78.7197 507.683 77.6496 508.583 76.9489C509.483 76.2386 510.529 75.8835 511.722 75.8835C512.044 75.8835 512.376 75.9072 512.717 75.9545C513.058 75.9924 513.375 76.054 513.668 76.1392V82.1761C513.337 82.0625 512.901 81.9725 512.362 81.9062C511.831 81.84 511.358 81.8068 510.941 81.8068C510.117 81.8068 509.374 81.9915 508.711 82.3608C508.058 82.7206 507.541 83.2273 507.163 83.8807C506.793 84.5246 506.609 85.2822 506.609 86.1534V98H499.663ZM529.515 76.1818V81.2955H515.481V76.1818H529.515ZM518.407 98V75.0739C518.407 73.3883 518.724 71.9915 519.359 70.8835C519.993 69.7661 520.874 68.9328 522.001 68.3835C523.127 67.8248 524.43 67.5455 525.907 67.5455C526.873 67.5455 527.782 67.6212 528.634 67.7727C529.496 67.9148 530.135 68.0426 530.552 68.1562L529.444 73.2415C529.188 73.1562 528.876 73.0852 528.506 73.0284C528.146 72.9716 527.805 72.9432 527.484 72.9432C526.669 72.9432 526.11 73.1231 525.807 73.483C525.504 73.8428 525.353 74.3352 525.353 74.9602V98H518.407ZM537.748 98.3693C536.356 98.3693 535.12 98.1373 534.04 97.6733C532.97 97.1998 532.123 96.4896 531.498 95.5426C530.882 94.5862 530.574 93.3883 530.574 91.9489C530.574 90.7367 530.787 89.714 531.213 88.8807C531.64 88.0473 532.227 87.3703 532.975 86.8494C533.723 86.3286 534.585 85.9356 535.56 85.6705C536.535 85.3958 537.577 85.2112 538.685 85.1165C539.926 85.0028 540.925 84.8845 541.682 84.7614C542.44 84.6288 542.989 84.4441 543.33 84.2074C543.68 83.9612 543.856 83.6155 543.856 83.1705V83.0994C543.856 82.3703 543.605 81.8068 543.103 81.4091C542.601 81.0114 541.924 80.8125 541.071 80.8125C540.153 80.8125 539.414 81.0114 538.856 81.4091C538.297 81.8068 537.942 82.3561 537.79 83.0568L531.384 82.8295C531.573 81.5038 532.061 80.3201 532.847 79.2784C533.642 78.2273 534.731 77.4034 536.114 76.8068C537.506 76.2008 539.178 75.8977 541.128 75.8977C542.52 75.8977 543.803 76.0634 544.978 76.3949C546.152 76.7169 547.175 77.1903 548.046 77.8153C548.917 78.4309 549.589 79.1884 550.063 80.0881C550.546 80.9877 550.787 82.0152 550.787 83.1705V98H544.253V94.9602H544.083C543.695 95.6989 543.197 96.3239 542.591 96.8352C541.995 97.3466 541.289 97.7301 540.475 97.9858C539.67 98.2415 538.761 98.3693 537.748 98.3693ZM539.892 93.8239C540.641 93.8239 541.313 93.6723 541.91 93.3693C542.516 93.0663 542.999 92.6496 543.358 92.1193C543.718 91.5795 543.898 90.9545 543.898 90.2443V88.1705C543.699 88.2746 543.458 88.3693 543.174 88.4545C542.899 88.5398 542.596 88.6203 542.265 88.696C541.933 88.7718 541.592 88.8381 541.242 88.8949C540.892 88.9517 540.555 89.0038 540.233 89.0511C539.58 89.1553 539.021 89.3163 538.557 89.5341C538.103 89.7519 537.752 90.036 537.506 90.3864C537.269 90.7273 537.151 91.1345 537.151 91.608C537.151 92.3277 537.407 92.8769 537.918 93.2557C538.439 93.6345 539.097 93.8239 539.892 93.8239ZM564.819 98.4119C562.518 98.4119 560.544 97.9384 558.896 96.9915C557.258 96.0445 555.998 94.7282 555.117 93.0426C554.237 91.3475 553.796 89.3873 553.796 87.1619C553.796 84.9271 554.237 82.9669 555.117 81.2812C556.008 79.5862 557.272 78.2652 558.91 77.3182C560.558 76.3712 562.523 75.8977 564.805 75.8977C566.822 75.8977 568.579 76.2623 570.075 76.9915C571.581 77.7206 572.755 78.7528 573.598 80.0881C574.45 81.4138 574.9 82.9716 574.947 84.7614H568.456C568.323 83.6439 567.944 82.768 567.319 82.1335C566.704 81.4991 565.899 81.1818 564.904 81.1818C564.099 81.1818 563.394 81.4091 562.788 81.8636C562.182 82.3087 561.708 82.9716 561.367 83.8523C561.036 84.7235 560.87 85.803 560.87 87.0909C560.87 88.3788 561.036 89.4678 561.367 90.358C561.708 91.2386 562.182 91.9062 562.788 92.3608C563.394 92.8059 564.099 93.0284 564.904 93.0284C565.548 93.0284 566.117 92.8911 566.609 92.6165C567.111 92.3419 567.523 91.9394 567.845 91.4091C568.167 90.8693 568.37 90.2159 568.456 89.4489H574.947C574.881 91.2481 574.431 92.8201 573.598 94.1648C572.774 95.5095 571.614 96.5559 570.117 97.304C568.631 98.0426 566.865 98.4119 564.819 98.4119ZM588.301 98.4119C586.018 98.4119 584.049 97.9621 582.391 97.0625C580.744 96.1534 579.475 94.8608 578.585 93.1847C577.704 91.4991 577.264 89.4962 577.264 87.1761C577.264 84.9223 577.709 82.9527 578.599 81.267C579.489 79.572 580.744 78.2557 582.363 77.3182C583.982 76.3712 585.891 75.8977 588.087 75.8977C589.641 75.8977 591.061 76.1392 592.349 76.6222C593.637 77.1051 594.749 77.8201 595.687 78.767C596.624 79.714 597.354 80.8835 597.874 82.2756C598.395 83.6581 598.656 85.2443 598.656 87.0341V88.767H579.693V84.733H592.193C592.183 83.9943 592.008 83.3362 591.667 82.7585C591.326 82.1809 590.857 81.7311 590.261 81.4091C589.674 81.0777 588.997 80.9119 588.23 80.9119C587.453 80.9119 586.757 81.0871 586.141 81.4375C585.526 81.7784 585.038 82.2472 584.678 82.8438C584.319 83.4309 584.129 84.0985 584.11 84.8466V88.9517C584.11 89.8419 584.285 90.6231 584.636 91.2955C584.986 91.9583 585.483 92.4744 586.127 92.8438C586.771 93.2131 587.538 93.3977 588.428 93.3977C589.044 93.3977 589.603 93.3125 590.105 93.142C590.606 92.9716 591.037 92.7206 591.397 92.3892C591.757 92.0578 592.027 91.6506 592.207 91.1676L598.585 91.3523C598.32 92.7822 597.737 94.0275 596.837 95.0881C595.947 96.1392 594.778 96.9583 593.329 97.5455C591.88 98.1231 590.204 98.4119 588.301 98.4119Z" fill="#1447E6"/>
</g>
<defs>
<clipPath id="clip0_10_22">
<rect width="950" height="384" fill="white"/>
</clipPath>
</defs>
</svg>
