<svg width="1137" height="253" viewBox="0 0 1137 253" fill="none" xmlns="http://www.w3.org/2000/svg">
<path d="M708.5 0.503185C716.301 -0.449804 741.615 0.0249517 751.229 1.30494C757.13 2.09099 766.131 4.1568 771.229 5.89674C782.833 9.85682 800.228 18.7551 805.5 23.427C807.7 25.3771 811.694 28.8547 814.376 31.1546C836.342 49.9954 849.311 72.4916 855.414 102.337C861.274 130.994 857.536 161.73 845.286 185.621C842.326 191.393 838.624 197.977 837.058 200.252C833.676 205.168 817.324 221.955 811.13 226.869C806.371 230.646 790.309 240.836 789.113 240.837C788.707 240.837 786.153 241.902 783.438 243.201C777.105 246.234 760.949 250.371 749.466 251.9C743.884 252.643 733.896 252.9 723 252.582C708.347 252.154 703.873 251.642 695.5 249.426C668.649 242.32 655.491 234.474 633.907 212.702C610.343 188.934 598.904 161.844 598.886 129.759C598.869 100.333 607.666 73.722 625.305 49.8372C633.42 38.8484 638.567 33.61 649.581 25.1282C668.845 10.2934 685.562 3.30718 708.5 0.503185ZM1055.66 3.83717C1065.97 3.83717 1073.13 4.23553 1073.5 4.82936C1074.04 5.71323 1065.69 14.1674 1053.15 25.4329C1050.76 27.5807 1046.71 31.3622 1044.15 33.8372C1041.58 36.3121 1037.01 40.5303 1033.99 43.2102C1030.97 45.8902 1025.54 50.8403 1021.93 54.2102C1018.32 57.5802 1010.24 65.0624 1003.98 70.8372C997.723 76.612 990.83 82.9776 988.667 84.9827L984.733 88.6272L988.051 94.4827C989.874 97.7021 991.644 100.562 991.982 100.837C992.321 101.113 993.92 103.588 995.535 106.337C997.152 109.087 998.93 112.076 999.487 112.979C1000.04 113.883 1002.21 117.483 1004.3 120.979C1006.4 124.476 1009.77 129.905 1011.8 133.043C1013.84 136.182 1018.82 144.058 1022.88 150.543C1026.95 157.03 1031.7 164.587 1033.46 167.337C1035.21 170.087 1037.91 174.587 1039.47 177.337C1043.2 183.951 1054.35 201.889 1059.16 209.032C1061.27 212.164 1063 215.163 1063 215.699C1063 216.233 1063.41 216.82 1063.91 217.004C1065.79 217.699 1084.2 248.732 1083.67 250.323C1083.47 250.935 1077.15 251.447 1067.73 251.613L1052.13 251.888L1049.56 249.122C1048.16 247.603 1047 245.964 1047 245.482C1047 244.999 1045.31 242.313 1043.25 239.512C1041.19 236.711 1039.05 233.653 1038.5 232.716C1031.53 220.848 1009.11 185.815 1006.26 182.337C1004.52 180.211 999.002 170.764 999 169.906C999 169.41 998.648 168.854 998.217 168.67C997.784 168.484 994.785 164.06 991.549 158.837C984.907 148.114 970.253 125.466 965.889 119.175C964.3 116.886 963.001 114.592 963 114.079C962.999 113.566 962.1 112.332 961 111.337C959.216 109.723 958.811 109.689 957.25 111.019C956.286 111.838 952.111 115.397 947.972 118.924C943.831 122.451 938.094 127.305 935.222 129.71L930 134.083V191.761C930 235.285 929.706 249.731 928.8 250.638C928 251.436 923.644 251.837 915.808 251.837H904.016L903.758 128.587C903.616 60.8213 903.639 5.03565 903.809 4.58717C903.983 4.17438 909.718 3.83718 916.559 3.83717C923.398 3.83717 929.005 4.17447 929.021 4.58717C929.033 5.01569 929.077 26.1601 929.12 51.5872C929.162 77.0249 929.571 97.8372 930.027 97.8372C930.484 97.8369 931.463 97.2749 932.203 96.5872C933.711 95.1862 948.844 81.7732 953.494 77.7151C957.583 74.1477 988.559 46.981 993.369 42.7454C995.498 40.8705 998.465 38.2122 999.963 36.8372C1001.46 35.4622 1004.9 32.4649 1007.59 30.1751C1010.29 27.8855 1013.44 25.1855 1014.6 24.1751C1026.1 14.1028 1030.63 10.0999 1032 8.77662C1036.98 3.97674 1037.65 3.83717 1055.66 3.83717ZM356.867 0.837169C358.043 0.837708 363.58 6.0234 368.174 11.4251C370.553 14.223 374.378 18.7232 376.674 21.4251C378.969 24.1268 382.119 27.7231 383.674 29.4182C385.228 31.1124 389.2 35.6087 392.5 39.4094C395.8 43.2093 400.334 48.3484 402.575 50.8284C407.749 56.5532 410.916 60.1767 420.504 71.3372C431.598 84.2498 437.434 90.9659 440.136 93.929C443.811 97.9579 448.012 102.782 453.997 109.848C457.02 113.418 462.664 119.937 466.539 124.337C470.414 128.737 474.69 133.635 476.042 135.221C479.047 138.744 478.877 138.551 487.554 148.362C491.433 152.748 497.01 159.262 499.948 162.837C505.202 169.233 515.377 180.857 521.745 187.738L524.99 191.243L525.5 3.33717L535.5 3.04518C541 2.88419 546.513 3.00571 547.75 3.31471L550 3.87526V126.275C550 193.589 549.727 249.377 549.393 250.256C549.058 251.126 547.955 251.837 546.938 251.837C544.901 251.837 543.39 250.451 534.351 240.266C530.968 236.456 527.143 232.183 525.851 230.771C523.239 227.92 513.343 216.724 509.997 212.837C508.813 211.462 506.417 208.758 504.672 206.829C502.927 204.9 496.775 197.925 491 191.33C485.226 184.736 480.051 178.847 479.5 178.241C475.7 174.072 466.359 163.29 464.612 161.058C463.451 159.574 461.825 157.658 461 156.802C458.594 154.304 449.239 143.413 446.775 140.243C445.534 138.646 443.792 136.662 442.907 135.837C442.132 135.115 439.62 132.28 437.016 129.199L434.781 126.539C432.18 123.455 429.684 120.607 428.926 119.869C428.06 119.026 425.748 116.312 423.789 113.837C421.83 111.362 418.263 107.237 415.864 104.671C413.464 102.105 409.7 97.8396 407.5 95.1917C403.302 90.1376 391.804 77.0987 385.637 70.3977L382.011 66.4583L381.755 158.398L381.5 250.337H355.5L355.203 131.837C355.04 66.6654 355.188 10.5298 355.533 7.08717C355.877 3.65048 356.478 0.837169 356.867 0.837169ZM1111.72 3.44557C1112.85 2.32288 1135.4 3.96088 1136.24 5.22682C1137.22 6.79463 1137.21 249.57 1136.22 250.202C1134.79 251.085 1116.22 252.108 1113.59 251.448L1111 250.8V127.486C1111 59.686 1111.33 3.8825 1111.72 3.44557ZM0.672852 3.49733C1.0548 3.12746 33.1127 2.93935 71.9229 3.08033L142.5 3.33717L142.78 16.0872L143.06 28.8372H26V104.837L48.75 105.087C61.263 105.224 77.0433 105.337 83.8184 105.337C93.7358 105.337 96.2947 105.63 96.9531 106.837C97.402 107.663 97.7087 112.742 97.6348 118.124C97.5308 125.627 97.1499 128.133 96 128.86C95.1306 129.407 80.3155 129.814 60.9033 129.823L27.3057 129.837L26.6572 141.087C26.0533 151.582 25.6992 224.549 26.25 225.068C26.4169 225.194 52.6177 225.531 84.5 225.818L142.5 226.337L142.782 238.061L143.063 249.783L140.282 250.483C136.584 251.412 4.00438 251.541 1.75 250.618C0.0971366 249.939 2.66571e-07 243.105 0 127.035C1.32288e-06 59.4744 0.302967 3.89134 0.672852 3.49733ZM746.942 26.4768C735.62 24.4698 725.569 23.8785 719.5 24.8645C716.75 25.3115 711.8 26.1156 708.5 26.6516C699.752 28.0726 686.657 33.2614 675.021 39.9182C669.684 42.9724 654.104 56.0044 650.429 60.4895C642.163 70.5774 634.084 85.3616 629.546 98.7024C624.302 114.12 623.883 140.412 628.628 156.266C629.936 160.635 633.474 169.189 636.491 175.274C645.682 193.815 658.958 206.432 680.5 217.096C694.149 223.852 695.713 224.444 705 226.365C715.221 228.478 737.919 228.45 749 226.309C753.674 225.406 757.949 224.327 758.5 223.912C759.051 223.498 763.326 221.649 768 219.802C783.977 213.491 798.854 202.842 809.168 190.337C816.327 181.656 826.126 162.329 829.194 150.837C832.246 139.405 832.501 112.989 829.659 102.837C823.005 79.0745 809.148 58.7357 790.47 45.3108C778.9 36.9939 759.906 28.7759 746.942 26.4768ZM194.332 122.412C194.625 121.663 208.326 121.414 239.622 121.59C264.305 121.729 285.063 121.841 285.75 121.84C286.666 121.839 287 124.481 287 131.725V141.611L284.038 142.045C282.409 142.284 261.597 142.447 237.788 142.408L194.5 142.337L194.21 132.912C194.051 127.73 194.106 123.005 194.332 122.412Z" fill="#212121"/>
</svg>
