<svg width="1693" height="684" viewBox="0 0 1693 684" fill="none" xmlns="http://www.w3.org/2000/svg">
<path d="M628.164 124.546C628.254 123.992 635.122 124.66 635.615 125.271C635.799 125.5 635.865 138.149 635.762 153.38L635.572 181.072L633.092 180.865C631.008 180.692 630.507 180.337 629.956 178.647C629.596 177.543 629.25 176.55 629.187 176.438C629.124 176.329 627.151 177.225 624.803 178.431C620.784 180.493 620.115 180.624 613.493 180.634C607.488 180.643 606.041 180.424 603.645 179.149C600.032 177.228 597.101 174.141 594.894 169.933C593.382 167.048 593.143 165.782 593.18 160.851C593.214 156.082 593.509 154.552 594.939 151.729C597.157 147.353 602.27 142.785 606.748 141.181C611.443 139.499 618.869 140.046 623.945 142.447C625.892 143.368 627.684 144.122 627.93 144.123C628.173 144.123 628.308 139.824 628.229 134.569C628.151 129.318 628.122 124.81 628.164 124.546ZM932.262 140.559C935.773 140.069 943.572 140.888 945.982 142C949.685 143.709 953.067 147.54 953.942 151.017C954.403 152.847 954.72 159.587 954.72 167.586V181.071L951.87 180.864C949.673 180.705 948.87 180.315 948.361 179.155C947.642 177.516 946.342 177.603 943.361 179.488C941.151 180.886 930.238 181.446 926.36 180.36C921.309 178.946 917.178 173.848 917.178 169.03C917.178 164.491 920.72 159.852 925.819 157.716C927.36 157.07 931.127 156.725 937.496 156.644C944.144 156.56 946.976 156.288 947.167 155.717C947.627 154.335 945.313 150.301 943.088 148.603C938.539 145.133 934.471 145.772 928.998 150.816C926.301 153.302 925.689 153.569 923.092 153.382C920.652 153.206 920.16 152.929 919.975 151.628C919.758 150.091 921.844 146.794 924.768 144.059C926.597 142.348 929.645 140.925 932.262 140.559ZM803.547 140.436L803.724 160.75L803.902 181.065L796.844 180.659L796.666 160.344L796.488 140.029L803.547 140.436ZM756.491 143.435C763.606 137.838 775.37 139.507 780.813 146.886C781.659 148.032 782.681 150.505 783.083 152.379C783.9 156.192 783.954 178.942 783.148 180.245C782.826 180.766 781.52 181.001 779.682 180.87L776.731 180.659L776.333 167.251C776.114 159.877 775.887 153.778 775.83 153.699C772.404 148.947 768.648 147.077 763.947 147.781C760.284 148.331 757.518 150.582 755.577 154.591C754.291 157.248 754.04 159.179 753.681 169.156L753.268 180.659L749.749 180.861L746.229 181.064V161.029C746.229 150.01 746.444 140.778 746.708 140.516C746.971 140.252 748.405 140.127 749.892 140.236C752.406 140.421 752.612 140.59 752.807 142.614C753.051 145.138 754.044 145.359 756.491 143.435ZM1007.68 181.064L1004.16 180.861L1000.64 180.659L1000.46 161.226C1000.36 150.538 1000.43 141.412 1000.61 140.946C1000.81 140.42 1002.21 140.101 1004.31 140.101H1007.68V181.064ZM1072.49 140.228C1074.67 140.41 1075.05 140.708 1075.54 142.614C1075.85 143.812 1076.24 144.793 1076.4 144.793C1076.57 144.792 1078.15 143.914 1079.9 142.84C1088.8 137.397 1100.72 140.232 1105.03 148.815C1106.87 152.491 1106.87 152.545 1106.89 166.748L1106.9 180.994H1099.52V168.57C1099.52 155.646 1099.14 153.389 1096.42 150.484C1094.98 148.935 1091.19 147.475 1088.61 147.475C1085.89 147.475 1083.33 148.852 1080.67 151.745C1077.79 154.876 1077.4 157.242 1077.4 171.742V181.064L1073.88 180.861L1070.36 180.659L1070.01 140.019L1072.49 140.228ZM1147.12 181.064L1143.6 180.861L1140.08 180.659L1139.91 154.011L1139.73 127.363H1147.12V181.064ZM690.848 140.694C693.98 139.844 701.86 140.299 704.02 141.455C706.359 142.707 710.699 146.887 710.699 147.888C710.699 148.398 710.975 148.815 711.313 148.815C712.534 148.815 713.38 155.785 713.373 165.775C713.369 171.38 713.176 177.112 712.944 178.512L712.524 181.058L705.671 180.659V153.63L702.925 150.938C697.846 145.957 691.597 146.415 687.993 152.03L685.94 155.23L685.015 180.994H681.432C679.037 180.994 677.836 180.717 677.806 180.156C677.783 179.696 677.801 174.298 677.846 168.161C677.907 159.864 677.683 156.418 676.972 154.716C674.735 149.364 669.512 146.236 665.043 147.574C662.627 148.298 658.408 152.025 658.408 153.435C658.408 153.782 658.053 154.185 657.619 154.33C657.063 154.516 656.739 158.501 656.525 167.825L656.223 181.058L652.791 180.858L649.358 180.659L649.18 161.226C649.082 150.538 649.154 141.397 649.339 140.914C649.579 140.287 650.399 140.167 652.199 140.491C655.017 140.999 656.569 141.961 656.015 142.857C655.375 143.895 656.906 143.502 659.522 141.959C661.636 140.712 663.051 140.466 668.124 140.466C673.542 140.466 674.534 140.665 677.35 142.315C679.086 143.332 680.83 144.769 681.225 145.509C681.913 146.792 682.086 146.73 685.019 144.148C686.709 142.66 689.333 141.106 690.848 140.694ZM560.81 128.503C561.125 127.493 561.807 127.329 564.979 127.497C567.489 127.63 568.963 128.039 569.336 128.704C570.346 130.508 573.044 136.88 577.565 148.146C580.007 154.229 582.326 159.771 582.72 160.459C583.113 161.148 584.42 164.467 585.624 167.835C586.827 171.203 588.311 174.924 588.921 176.103C589.53 177.282 590.029 178.865 590.029 179.62C590.029 180.82 589.608 180.994 586.703 180.994C584.145 180.994 583.062 180.655 582.011 179.526C581.259 178.72 580.643 177.71 580.643 177.283C580.643 176.576 579.354 173.464 578.015 170.938C577.57 170.101 575.438 169.933 565.254 169.933H553.026L551.545 172.614C550.73 174.089 549.646 176.351 549.135 177.642C548.624 178.932 547.887 180.211 547.498 180.481C546.213 181.374 540.404 181.062 540.027 180.081C539.835 179.578 540.683 177.089 541.913 174.55C543.143 172.01 544.539 168.618 545.015 167.013C545.491 165.407 546.751 162.239 547.815 159.974C548.88 157.708 550.506 153.812 551.43 151.315C552.353 148.818 553.541 145.801 554.069 144.611C554.598 143.421 555.998 140.055 557.181 137.131C558.362 134.207 559.579 131.341 559.883 130.762C560.186 130.183 560.603 129.167 560.81 128.503ZM1362.84 140.856C1364.21 140.468 1367.84 140.294 1370.9 140.468C1377.03 140.816 1380.28 142.084 1383.16 145.234C1386.46 148.854 1386.78 150.708 1386.78 166.245L1386.78 180.659H1384.11C1381.72 180.659 1381.4 180.461 1381.09 178.816L1380.75 176.975L1377.4 178.702C1372.86 181.038 1362.52 181.768 1358.06 180.065C1352.68 178.009 1349.25 172.363 1350.21 167.129C1350.78 164.021 1351.79 162.403 1354.6 160.095C1357.88 157.406 1360.16 156.878 1369.97 156.519C1375.11 156.331 1379.46 156.029 1379.64 155.847C1379.82 155.664 1379.27 154.023 1378.42 152.199C1377.17 149.533 1376.32 148.661 1374.11 147.76C1369.04 145.689 1364.56 146.953 1360.7 151.551C1358.79 153.818 1354.21 154.719 1352.86 153.092C1352.02 152.077 1352.59 148.815 1353.61 148.815C1353.97 148.815 1354.27 148.388 1354.27 147.867C1354.27 146.389 1360.08 141.641 1362.84 140.856ZM890.841 140.516C891.104 140.252 892.387 140.127 893.69 140.236C895.392 140.38 896.247 140.861 896.723 141.944C897.531 143.786 898.352 143.827 901.218 142.171C903.262 140.989 907.833 140.387 912.652 140.664C914.287 140.759 914.496 141.033 914.496 143.087C914.496 145.243 914.323 145.431 911.982 145.813C906.723 146.672 899.748 150.908 899.748 153.243C899.748 153.758 899.477 154.179 899.146 154.179C898.815 154.179 898.324 160.212 898.055 167.586L897.565 180.994H890.362V160.994C890.362 149.996 890.577 140.783 890.841 140.516ZM1163.7 140.228C1166.01 140.418 1166.24 140.623 1166.44 142.614C1166.55 143.811 1166.79 144.792 1166.96 144.793C1167.13 144.793 1169.05 143.895 1171.22 142.798C1181.6 137.559 1191.85 140.147 1196.38 149.15L1198.41 153.173L1198.29 165.24C1198.22 171.877 1198.15 178.137 1198.12 179.15C1198.07 180.932 1197.95 180.994 1194.38 180.994H1190.7L1190.69 169.095C1190.69 156.316 1190.24 153.528 1187.7 150.667C1184.52 147.07 1177.11 146.559 1173.85 149.711C1168.7 154.68 1169.02 153.606 1168.61 167.77L1168.24 180.659H1161.53L1161.36 160.339L1161.18 140.019L1163.7 140.228ZM1346.9 125.615C1346.9 129.804 1346.58 130.045 1341.1 130.045C1339.08 130.045 1336.87 130.337 1336.21 130.695C1334.83 131.433 1332.82 135.979 1332.82 138.362C1332.82 139.716 1333.24 140.01 1335.67 140.368C1337.23 140.599 1340.28 140.744 1342.44 140.689C1346.46 140.59 1347.69 141.28 1347.35 143.445C1346.97 145.87 1346.2 146.134 1339.48 146.134H1332.82V180.994H1329.13C1326.67 180.994 1325.42 180.715 1325.36 180.156C1325.32 179.696 1325.35 171.852 1325.43 162.726L1325.57 146.134H1321.55C1317.29 146.134 1316.73 145.699 1316.73 142.424C1316.73 140.943 1317.01 140.821 1320.92 140.636L1325.11 140.436L1325.54 135.636C1326.12 129.129 1328.63 125.356 1333.66 123.423C1335.97 122.535 1338.84 122.058 1342.04 122.035L1346.9 122V125.615ZM1458.15 140.965C1459.7 140.382 1462.44 140.166 1466.02 140.345C1474.76 140.78 1479.82 143.954 1484 151.628C1485.52 154.431 1485.92 156.031 1485.95 159.521L1486 163.899L1469.41 164.078C1454.82 164.236 1452.82 164.385 1452.82 165.315C1452.82 167.232 1454.92 169.985 1457.75 171.762C1463.45 175.349 1468.74 174.838 1475 170.094C1477.74 168.026 1479.4 167.284 1481.81 167.052C1484.76 166.768 1484.99 166.857 1484.99 168.26C1484.99 171.521 1480.71 176.318 1475.27 179.147C1473.25 180.203 1470.93 180.618 1465.77 180.854C1459.73 181.129 1458.61 180.997 1455.9 179.686C1450.64 177.141 1447.37 173.231 1445.14 166.829C1441.66 156.842 1447.66 144.909 1458.15 140.965ZM823.517 140.789C827.26 140.03 836.535 140.68 839.155 141.887C843.114 143.71 847.066 148.849 846.668 151.654C846.489 152.91 845.975 153.208 843.702 153.374C841.313 153.549 840.69 153.285 838.969 151.363C834.867 146.787 830.693 145.522 826.146 147.479C822.657 148.979 821.032 150.899 821.638 152.807C822.051 154.105 826.931 156.074 833.38 157.543C838.765 158.77 842.414 160.666 845.092 163.63C847.184 165.946 847.458 166.668 847.458 169.869C847.458 173 847.162 173.825 845.278 175.964C844.08 177.324 842.213 178.899 841.131 179.463C838.852 180.649 829.576 181.38 825.179 180.721C819.483 179.867 813.233 174.037 813.027 169.389C812.944 167.507 813.163 167.225 814.857 167.031C818.044 166.667 819.794 167.46 821.721 170.142C825.013 174.721 831.08 176.194 836.281 173.676C839.535 172.101 840.291 170.995 839.708 168.67C839.216 166.71 836.136 165.147 830.362 163.93C821.156 161.988 818.213 160.662 815.649 157.301C811.243 151.525 815.593 142.398 823.517 140.789ZM732.486 140.436L732.681 158.536C732.788 168.491 732.696 177.631 732.476 178.851C732.085 181.022 732.017 181.061 728.93 180.862L725.782 180.659L725.604 160.344L725.428 140.029L732.486 140.436ZM861.344 130.461C861.607 130.198 863.19 130.072 864.863 130.182L867.904 130.38L868.099 135.193C868.288 139.821 868.366 140.022 870.118 140.407C871.12 140.627 873.533 140.751 875.479 140.682C879.55 140.538 880.499 141.18 880.191 143.873L879.972 145.799L874.105 145.992L868.239 146.187V158.794C868.239 174.02 868.108 173.762 876.184 174.29L881.312 174.625L881.517 177.096C881.806 180.566 880.224 181.29 873.487 180.771C867.592 180.316 865.279 179.359 862.781 176.345C860.498 173.589 859.151 164.642 859.75 156.21C859.984 152.919 859.991 149.305 859.765 148.18C859.378 146.24 859.19 146.134 856.137 146.134C852.685 146.134 850.81 144.952 850.809 142.774C850.809 141.09 851.365 140.833 856.06 140.342C860.572 139.87 860.839 139.517 860.855 134.012C860.861 132.322 861.081 130.724 861.344 130.461ZM970.808 132.056C970.808 130.014 970.872 129.972 973.658 130.174L976.507 130.38L976.703 135.216L976.899 140.051L979.05 140.443C980.232 140.66 982.656 140.689 984.436 140.51C988.909 140.059 989.579 140.449 989.579 143.499V146.084L983.378 146.276L977.178 146.469L976.987 156.86C976.707 172.176 977.832 174.29 986.259 174.29H990.25V177.276C990.25 180.16 990.169 180.278 987.894 180.704C984.958 181.255 978.403 180.475 976.173 179.309C973.907 178.124 971.195 175.065 970.229 172.605C969.747 171.377 969.378 165.856 969.285 158.527L969.133 146.469L965.247 146.123C961.181 145.762 959.939 144.849 960.246 142.447C960.359 141.569 960.996 141.045 962.094 140.93C969.494 140.15 969.269 140.259 970.066 137.092C970.475 135.47 970.808 133.204 970.808 132.056ZM1409.83 140.985C1413.7 139.543 1422.21 140.16 1426.68 142.207C1432.32 144.793 1437.4 150.769 1437.4 154.822C1437.4 156.001 1436.97 156.189 1434.3 156.189C1431.48 156.189 1430.97 155.926 1428.61 153.254C1424.18 148.219 1417.1 146.094 1412.12 148.31C1406.75 150.702 1403.32 156.818 1404.22 162.4C1405.32 169.254 1410.4 173.735 1417.16 173.812C1422.07 173.868 1427.85 170.371 1429.4 166.413C1429.91 165.107 1430.48 164.904 1433.62 164.904C1437.99 164.904 1438.44 165.605 1436.64 169.614C1435.14 172.972 1430.53 177.581 1426.86 179.39C1422.95 181.318 1410.59 181.206 1406.89 179.209C1403.39 177.312 1400.09 174.016 1398.33 170.639C1396.25 166.646 1396.23 155.797 1398.28 151.497C1400.6 146.65 1404.73 142.894 1409.83 140.985ZM1213.3 130.514C1213.47 130.218 1215.02 130.067 1216.73 130.178L1219.86 130.38L1219.63 134.85C1219.35 140.343 1219.9 140.771 1227.16 140.771C1232.71 140.771 1234 141.641 1232.87 144.626C1232.34 146.034 1231.91 146.134 1226.33 146.134H1220.36L1219.94 148.229C1219.42 150.817 1219.4 168.745 1219.91 170.653C1220.38 172.408 1223.97 173.798 1229.24 174.268L1233.26 174.625V180.659L1226.78 180.616C1220.95 180.578 1220.03 180.397 1217.65 178.816C1212.83 175.627 1212.15 173.138 1212.15 158.659V146.134H1208.44C1205.11 146.134 1204.68 145.966 1204.11 144.464C1203.21 142.107 1203.93 140.771 1206.1 140.771C1207.12 140.77 1208.88 140.587 1210.01 140.361C1211.98 139.966 1212.07 139.793 1212.52 135.501C1212.77 133.053 1213.12 130.81 1213.3 130.514ZM1290.22 140.946C1290.74 139.587 1295.27 140.248 1295.29 141.688C1295.32 144.023 1296.42 144.236 1299.71 142.538C1302.18 141.261 1304.16 140.808 1307.74 140.703C1313.12 140.545 1314.05 140.887 1314.05 143.022C1314.05 145.085 1312.82 146.133 1310.39 146.141C1307.3 146.151 1301.72 149.045 1299.55 151.76L1297.62 154.175L1297.29 167.417L1296.95 180.659H1290.25L1290.07 161.226C1289.97 150.538 1290.04 141.412 1290.22 140.946ZM1252.5 140.725C1253.72 140.414 1257 140.244 1259.79 140.348C1267.12 140.618 1272.34 143.433 1276.41 149.3C1278.11 151.748 1280.13 160.376 1279.55 162.697L1279.16 164.234H1262.75C1248.17 164.234 1246.34 164.354 1246.34 165.305C1246.34 169.816 1254.67 174.952 1260.48 174.023C1263.31 173.57 1267.06 171.673 1269.99 169.207C1272.26 167.292 1275.87 166.526 1277.78 167.551C1279.11 168.263 1279.13 168.424 1278.18 170.277C1276.79 172.955 1272.06 177.446 1268.79 179.177C1266.52 180.381 1264.93 180.603 1258.4 180.629C1249.8 180.662 1248.35 180.187 1244.13 175.968C1236.89 168.728 1235.85 157.388 1241.64 148.725C1243.81 145.477 1249.08 141.593 1252.5 140.725ZM1033.15 140.522C1034.08 140.352 1037.24 140.356 1040.19 140.533C1048.79 141.048 1054.51 144.713 1058.02 151.948C1059.1 154.18 1059.45 156.216 1059.48 160.399C1059.53 167.278 1057.8 171.687 1053.48 175.666C1048.91 179.881 1046.73 180.571 1037.85 180.618C1030.55 180.656 1029.97 180.558 1026.98 178.768C1023.33 176.58 1020.39 173.43 1018.25 169.411C1017.01 167.096 1016.74 165.544 1016.77 160.883C1016.79 156.077 1017.07 154.653 1018.55 151.79C1020.01 148.981 1023.2 145.536 1026.79 142.892C1027.77 142.166 1031.23 140.88 1033.15 140.522ZM937.438 164.234C926.732 164.234 925.223 164.777 925.223 168.625C925.223 170.556 925.672 171.256 928.005 172.945C931.24 175.289 934.703 175.587 938.529 173.85C942.002 172.273 946.675 167.638 946.675 165.771C946.675 164.244 946.619 164.234 937.438 164.234ZM1370.27 164.234C1361.23 164.234 1360.86 164.29 1359.27 165.88C1357.16 167.982 1357.19 169.479 1359.36 171.824C1362.73 175.45 1366.87 175.898 1372.26 173.216C1375.81 171.443 1378.59 168.475 1379.25 165.743L1379.62 164.234H1370.27ZM619.602 148.247C613.84 146.521 608.343 147.755 604.78 151.575C598.828 157.959 599.701 167.545 606.588 171.415C614.333 175.768 622.002 174.179 626.56 167.278C628.175 164.834 628.322 164.102 628.065 159.782C627.796 155.25 627.633 154.836 624.981 152.007C623.312 150.226 621.14 148.708 619.602 148.247ZM1042.9 148.222C1036.73 146.668 1031.89 147.78 1028.41 151.552C1022.68 157.765 1023.31 166.898 1029.78 171.177C1039.37 177.526 1052.05 171.633 1051.86 160.916C1051.82 158.869 1051.6 156.514 1051.36 155.682C1050.58 152.981 1046.1 149.026 1042.9 148.222ZM568.41 146.852C565.765 140.481 563.884 137.763 563.884 140.312C563.883 141.446 559.641 152.649 557.873 156.189C557.228 157.48 556.503 159.36 556.261 160.367L555.82 162.197L564.88 162.179C569.86 162.168 573.936 162.014 573.939 161.836C573.939 161.037 571.063 153.242 568.41 146.852ZM1263.91 148.442C1258.77 146.294 1252.98 147.613 1249.11 151.813C1244.48 156.83 1244.54 156.86 1258.74 156.86C1269.31 156.86 1271.14 156.711 1271.14 155.856C1271.14 154.294 1266.48 149.518 1263.91 148.442ZM1470.05 148.269C1467.68 147.264 1462.43 147.333 1460.02 148.401C1457.44 149.543 1452.82 154.203 1452.82 155.655C1452.82 156.771 1453.73 156.86 1465.22 156.86C1476.69 156.86 1477.62 156.77 1477.62 155.659C1477.62 154.213 1472.67 149.378 1470.05 148.269ZM1003.73 124.011C1005.73 124.011 1007.31 124.403 1007.97 125.064C1009.81 126.91 1009.04 132.69 1006.74 134.225C1005.08 135.333 1001.79 134.705 999.772 132.894C997.101 130.499 996.801 127.991 998.917 125.738C1000.22 124.353 1001.17 124.011 1003.73 124.011ZM724.944 124.415C726.457 123.731 733.658 124.54 734.288 125.465C735.247 126.873 734.349 132.942 733.041 133.899C731.441 135.069 727.727 134.944 725.759 133.654C724.317 132.71 724.106 132.076 724.106 128.683C724.106 126.221 724.414 124.655 724.944 124.415ZM795.317 125.055C797.288 123.675 802.786 123.681 804.17 125.064C804.839 125.734 805.223 127.309 805.223 129.385C805.223 131.999 804.926 132.858 803.733 133.693C801.781 135.061 798.562 135.021 796.49 133.604C794.178 132.021 793.849 131.397 793.837 128.574C793.829 126.768 794.23 125.816 795.317 125.055Z" fill="#FFD900"/>
<path d="M352.415 579.668C352.918 579.825 353.368 586.229 353.415 593.899C353.498 607.48 353.435 607.911 351 610.398C348.531 612.922 330.907 632.022 328 635.325C321.889 642.27 312.672 652.586 308.399 657.261C303.503 662.621 291.389 676.399 287.445 681.094L285.556 683.344H131.708L132.238 663.793C132.53 653.04 132.988 644.023 133.255 643.755C133.53 643.488 167.14 643.097 207.952 642.887C271.701 642.558 282.327 642.298 283.331 641.036C283.974 640.228 286.975 637.428 290 634.813C295.235 630.288 308.889 617.928 317.5 609.918C319.7 607.872 322.541 605.485 323.814 604.614C326.49 602.783 335.635 594.578 344.995 585.613C348.573 582.186 351.912 579.511 352.415 579.668ZM176.001 351.587C176.003 350.588 190.577 350.383 247.213 350.587L318.426 350.844L320.185 362.844C321.153 369.444 322.627 379.119 323.462 384.344C324.297 389.569 325.644 398.119 326.456 403.344C327.268 408.569 329.099 419.369 330.526 427.344C331.953 435.318 333.514 444.993 333.995 448.844C334.476 452.694 335.766 461.019 336.862 467.344C338.79 478.479 339.487 482.943 343.968 512.844C345.122 520.544 346.721 530.669 347.523 535.344C348.324 540.019 349.635 548.589 350.438 554.389C351.238 560.188 352.356 566.15 352.922 567.639C353.957 570.359 352.893 575.339 351.275 575.35C350.849 575.352 349.144 576.59 347.487 578.1C345.829 579.61 341.342 583.544 337.515 586.844C333.688 590.143 329.838 593.518 328.956 594.344C328.076 595.169 325.805 597.194 323.909 598.844C316.159 605.589 303.467 616.884 303 617.451C302.725 617.785 299.796 620.299 296.491 623.037C293.186 625.775 288.947 629.552 287.068 631.43L283.654 634.844L208.327 635.113C162.25 635.277 133.002 635.019 133 634.449C133 633.936 134.912 632.15 137.25 630.479C139.588 628.809 142.175 626.823 143 626.065C145.154 624.09 161.127 611.324 175 600.489C178.575 597.697 182.4 594.563 183.5 593.522C184.6 592.483 191.012 587.244 197.75 581.881C204.488 576.518 209.999 571.823 210 571.447C210 569.407 206.465 545.093 203.443 526.344C201.537 514.519 199.078 498.994 197.978 491.844C196.878 484.694 195.555 476.594 195.039 473.844C194.522 471.094 193.594 465.244 192.978 460.844C192.36 456.443 190.774 446.093 189.451 437.844C188.127 429.594 186.585 419.694 186.024 415.844C185.462 411.994 184.322 404.569 183.49 399.344C182.658 394.119 181.335 385.344 180.551 379.844C179.767 374.344 178.423 366.019 177.564 361.344C176.705 356.669 176.002 352.279 176.001 351.587ZM1197.75 523.16C1202.92 522.566 1222.48 523.532 1224.23 524.468C1226.68 525.776 1230 533.52 1230 537.903C1230 542.321 1226.64 548.664 1223.37 550.412C1220.01 552.214 1220.4 554.195 1225.25 559.773C1227.59 562.463 1229.5 565.153 1229.5 565.754C1229.5 566.353 1227.64 566.98 1225.36 567.146C1220.49 567.501 1218.26 565.759 1213.1 557.586C1209.97 552.635 1205.98 550.034 1204.21 551.803C1203.82 552.188 1203.48 555.649 1203.45 559.495C1203.38 567.178 1202.66 568.241 1197.98 567.554L1195 567.117V523.478L1197.75 523.16ZM1292.75 523.033C1300.03 521.13 1300.08 521.268 1299.77 545.375L1299.5 566.763L1296.31 567.415C1294.49 567.787 1292.67 567.611 1292.06 567.005C1291.38 566.324 1291 558.351 1291 544.717C1291 525.342 1291.15 523.451 1292.75 523.033ZM1691.77 545.046L1691.5 566.844L1687.25 567.151C1684.28 567.366 1682.98 567.065 1682.94 566.151C1682.91 565.432 1682.93 560.007 1683 554.094C1683.06 548.181 1682.74 543.344 1682.3 543.344C1681.85 543.344 1680.86 544.806 1680.1 546.594C1679.34 548.382 1677.82 551.869 1676.72 554.344C1675.62 556.819 1673.89 560.787 1672.87 563.161C1671.27 566.886 1670.65 567.435 1668.36 567.161C1666.9 566.987 1665.33 566.169 1664.89 565.344C1663.71 563.181 1659.77 553.859 1656.94 546.541L1654.5 540.239L1654.22 553.847L1653.94 567.456L1649.72 567.15L1645.5 566.844L1645.35 547.077C1645.26 536.206 1645.43 526.418 1645.71 525.327C1646.15 523.667 1647.09 523.344 1651.49 523.344H1656.75L1658.78 528.094C1659.9 530.706 1662.26 536.669 1664.03 541.344C1665.8 546.019 1667.56 550.191 1667.95 550.614C1668.8 551.559 1669.59 549.911 1675.27 535.344L1679.76 523.844L1685.9 523.546L1692.04 523.248L1691.77 545.046ZM1189.5 528.844L1165.9 529.408L1166.5 540.844L1176 541.093C1188.56 541.422 1190.21 541.844 1189.82 544.629C1189.51 546.754 1189.02 546.855 1177.71 547.126L1165.91 547.408L1166.5 560.844L1178.49 561.344C1190.48 561.844 1190.48 561.845 1190.49 564.344L1190.5 566.844L1158.26 567.393L1157.63 564.243C1156.83 560.235 1156.83 528.586 1157.63 525.594C1158.22 523.38 1158.49 523.344 1174.18 523.344H1190.13L1189.5 528.844ZM1277.5 523.287C1280.23 522.173 1283.2 522.186 1285 523.321C1286.23 524.102 1285.78 525.013 1282.4 528.555C1276.48 534.77 1274.11 537.44 1271.3 541.063L1268.81 544.283L1274.16 550.457C1277.1 553.853 1281.19 558.297 1283.25 560.332C1288.47 565.477 1288.24 567.344 1282.42 567.344C1277.5 567.344 1277.98 567.697 1267.74 556.535C1265.12 553.68 1262.31 551.344 1261.49 551.344C1260.03 551.344 1259.9 552.178 1259.58 563.844C1259.51 566.664 1259.26 566.844 1255.5 566.844H1251.5L1250.96 523.344H1259L1259.18 527.594C1259.28 529.931 1259.4 533.644 1259.43 535.844C1259.51 540.339 1261.3 540.812 1263.91 537.026C1266.69 532.999 1275.48 524.113 1277.5 523.287ZM552.75 522.989C553.712 522.714 556.075 522.676 558 522.905C559.925 523.134 566.592 523.327 572.816 523.333L584.133 523.344L583.5 528.844L559.5 529.844V541.349L570.168 541.346C582.562 541.344 584 541.718 584 544.951V547.344H558.781L559.359 554.094C559.677 557.806 559.952 560.983 559.969 561.153C559.988 561.323 565.379 561.323 571.951 561.153C583.093 560.865 583.936 560.976 584.409 562.792C585.469 566.861 583.61 567.344 566.878 567.344H551V545.417C551 525.392 551.152 523.447 552.75 522.989ZM623.682 523.804C624.977 522.51 626.392 522.263 629.822 522.733C632.273 523.069 638.941 523.344 644.64 523.344H655V529.344H631V541.344H640.375C653.258 541.344 656 541.98 656 544.969C656 547.342 655.991 547.344 643.5 547.344H631V561.344L640.25 561.462C645.337 561.528 649.884 561.512 650.354 561.428C652.761 560.997 655 562.675 655 564.911V567.344H623.31L622.655 553.687C621.579 531.242 621.768 525.718 623.682 523.804ZM755.508 523.344C767.25 523.344 769.017 523.57 771.293 525.36C777.103 529.93 777.348 543.083 771.722 548.459C770.062 550.046 768.32 551.344 767.852 551.344C766.752 551.344 766.738 554.073 767.836 554.511C768.953 554.956 775.998 565.312 776 566.511C776 567.029 773.882 567.316 771.294 567.149C767.008 566.871 766.294 566.442 763.304 562.344C757.51 554.405 754.214 551.158 752.312 551.521C750.781 551.813 750.455 553.063 750.208 559.605L749.916 567.344H746.075C742.936 567.344 742.123 566.932 741.63 565.094C740.826 562.09 740.834 537.223 741.642 529.491L742.285 523.344H755.508ZM883 523.344C885.524 523.344 887.006 523.805 887.018 524.594C887.028 525.282 887.195 534.619 887.39 545.344C887.585 556.067 887.529 565.405 887.265 566.094C886.995 566.798 885.085 567.344 882.893 567.344H879V523.344H883ZM904.5 524.85C906.805 523.631 909.894 523.33 917.834 523.553C928.093 523.842 928.189 523.868 931.084 527.11C934.309 530.722 934.863 534.076 932.391 535.024C931.49 535.37 928.076 534.255 924.641 532.492C915.729 527.922 911.903 528.178 906.368 533.712C902.153 537.928 902 538.297 902 544.262C902 553.821 905.072 558.301 913.099 560.448C917.455 561.613 917.952 561.52 923.514 558.508C932.372 553.71 936.095 554.561 932.842 560.639C929.933 566.074 926.556 567.344 915.013 567.344C906.549 567.344 905.969 567.2 901.952 564.094C895.764 559.309 893 553.704 893 545.939C893 536.158 897.005 528.812 904.5 524.85ZM1012.42 524.629C1014.86 523.206 1031.74 522.913 1035.21 524.233C1038.8 525.601 1043.79 531.225 1045.6 535.955C1048.12 542.569 1047.25 553.862 1043.8 559.063C1039.8 565.118 1034.37 567.344 1023.63 567.344C1014.15 567.344 1011.26 566.373 1006.8 561.684C1002.8 557.475 1001 552.234 1001 544.836C1001 535.346 1004.42 529.291 1012.42 524.629ZM1094 523.344C1097.48 523.344 1097.91 523.636 1098.52 526.43C1098.89 528.127 1098.87 538.027 1098.47 548.43L1097.75 567.344H1093.93C1091.83 567.344 1089.82 566.857 1089.45 566.262C1088.78 565.168 1088.83 546.591 1089.54 534.094C1089.76 530.171 1089.52 527.344 1088.96 527.344C1088.43 527.344 1087.95 528.357 1087.88 529.594C1087.8 531.287 1087.66 531.411 1087.31 530.094C1086.81 528.187 1085.31 528.023 1077.25 528.992L1072 529.623L1071.99 547.233C1071.98 556.919 1071.59 565.439 1071.13 566.168C1070.62 566.965 1068.94 567.363 1066.9 567.168L1063.5 566.844V529.844L1060.5 529.586C1051.12 528.78 1049 528.201 1049 526.449C1049 525.475 1049.3 524.377 1049.67 524.011C1050.04 523.644 1058.77 523.344 1069.08 523.344C1083.1 523.344 1087.98 523.659 1088.42 524.594C1088.88 525.594 1089.12 525.594 1089.58 524.594C1089.9 523.907 1091.89 523.344 1094 523.344ZM1549.17 523.412C1558.17 523.349 1559.06 523.526 1561.92 525.934C1565.36 528.825 1565.9 531.794 1563.24 533.216C1561.98 533.89 1559.91 533.483 1555.99 531.792C1549.5 528.994 1544.36 528.706 1541.83 530.999C1537.71 534.731 1540.52 538.407 1549 540.354C1555.68 541.888 1561.74 544.83 1564.15 547.707C1567.21 551.368 1566.35 560.286 1562.59 563.835C1560 566.283 1555.34 567.344 1547.19 567.344C1539.51 567.344 1538.02 567.042 1534.74 564.816C1529.56 561.29 1528.35 555.344 1532.82 555.344C1533.75 555.344 1536.76 556.541 1539.51 558.003C1545.64 561.268 1551.9 561.649 1554.9 558.939C1557.7 556.4 1557.55 553.922 1554.44 551.475C1551.97 549.532 1550.29 548.887 1541.41 546.474C1535.18 544.78 1531 540.288 1531 535.296C1531 532.239 1534.85 525.734 1537.38 524.506C1538.55 523.941 1543.85 523.449 1549.17 523.412ZM1421.17 523.757C1424.37 522.1 1428.61 521.907 1429.52 523.375C1429.87 523.942 1427.04 527.879 1423.24 532.125C1419.43 536.37 1415.58 540.987 1414.68 542.387C1412.88 545.179 1412.38 544.432 1426.73 560.199C1432.14 566.149 1432.15 567.345 1426.75 567.339C1421.86 567.333 1419.79 565.838 1412.49 557.051C1406.06 549.296 1404.65 549.679 1404 559.354L1403.5 566.844H1395.5L1395.23 545.416C1395.02 528.95 1395.25 523.795 1396.23 523.157C1396.93 522.7 1398.63 522.442 1400 522.585C1402.43 522.837 1402.51 523.084 1402.79 531.594C1402.95 536.406 1403.51 540.343 1404.05 540.344C1404.58 540.344 1406.02 539.129 1407.26 537.645C1413.08 530.634 1418.68 525.042 1421.17 523.757ZM1457.49 524.459C1460.66 522.913 1476.56 523.134 1480.5 524.778C1484.53 526.464 1486.17 530.602 1483.76 533.013C1482.43 534.346 1481.72 534.264 1477.38 532.283C1470.52 529.148 1464.49 528.594 1461.97 530.866C1457.72 534.719 1460.32 538.209 1469 540.292C1475.6 541.875 1481.86 544.892 1484.25 547.641C1485.43 549.002 1486 551.331 1486 554.85C1486 559.244 1485.54 560.527 1483.04 563.143C1479.44 566.917 1475.61 567.732 1464.29 567.138C1456.14 566.71 1455.55 566.522 1452.85 563.499C1446.97 556.92 1450.61 553.552 1458.91 557.891C1461.68 559.342 1465.7 560.762 1467.83 561.048C1471.12 561.489 1472.22 561.117 1474.99 558.643C1477.78 556.15 1478.11 555.412 1477.17 553.67C1475.9 551.284 1468.11 547.705 1462.11 546.746C1456.28 545.814 1451 540.493 1451 535.556C1451 531.612 1454.27 526.026 1457.49 524.459ZM1328.48 523.379C1334.47 523.401 1339.34 523.904 1340.58 524.629C1348.72 529.375 1351.37 534.177 1351.44 544.344C1351.51 553.28 1349.16 560.387 1345.48 562.356C1344.12 563.085 1343 564.035 1343 564.466C1343 567.216 1322.41 568.398 1316.72 565.975C1309.72 562.995 1305.72 555.295 1305.69 544.716C1305.67 538.751 1306.11 536.837 1308.37 532.979C1309.85 530.444 1312.73 527.239 1314.77 525.856C1318.12 523.579 1319.4 523.347 1328.48 523.379ZM799 523.011C803.053 522.408 812.291 523.516 815.131 524.947C821.576 528.194 826.346 536.655 826.347 544.844C826.348 552.746 823.544 558.953 817.984 563.357C813.911 566.583 813.179 566.787 804.336 567.174C793.149 567.664 790.394 566.734 785.056 560.671C780.087 555.025 778.448 548.781 779.89 540.983C781.043 534.746 783.003 531.163 787.48 527.109C790.252 524.601 791.634 524.108 799 523.011ZM1362 524.995C1364.07 523.531 1366.21 523.281 1374.5 523.536C1383.2 523.804 1384.91 524.154 1387.67 526.224C1390.2 528.121 1390.68 529.032 1390.06 530.724C1389 533.632 1385.02 533.904 1380.12 531.403C1374.92 528.754 1369.61 528.73 1367 531.344C1363.13 535.21 1365.3 538.208 1373.5 540.34C1380.3 542.107 1386.02 544.744 1388.87 547.422C1390.99 549.408 1391.18 550.259 1390.68 555.175C1390.22 559.576 1389.48 561.322 1387.04 563.771C1384.09 566.723 1383.58 566.858 1374.12 567.184C1365.66 567.476 1363.69 567.226 1360.15 565.421C1355.33 562.961 1353.74 559.168 1356.42 556.509C1357.98 554.955 1358.43 555.029 1363.09 557.619C1365.84 559.146 1370.04 560.662 1372.43 560.989C1376.29 561.518 1377.11 561.254 1379.88 558.606C1383.6 555.056 1383.7 554.283 1380.75 552.363C1376.33 549.489 1374.22 548.596 1368.9 547.346C1358.52 544.911 1356.5 542.954 1356.5 535.344C1356.5 529.53 1357.05 528.493 1362 524.995ZM681.346 523.351C689.704 523.346 691.63 523.656 694.098 525.414C697.73 528.001 699.295 530.839 698.488 533.382C697.515 536.448 692.084 535.571 688.238 531.726C687.522 531.01 685.332 530.122 683.371 529.754C674.26 528.045 667.079 534.506 666.896 544.579C666.741 553.092 669.047 556.988 675.831 559.677C680.758 561.629 684.915 560.965 689.876 557.434C691.489 556.285 693.977 555.344 695.404 555.344C697.591 555.344 698 555.794 698 558.191C698 564.59 692.3 567.315 679 567.272C669.881 567.243 665.925 565.491 661.707 559.614C659.082 555.956 658.609 554.297 658.206 547.347C657.515 535.399 660.389 529.135 668.5 524.917C670.621 523.813 674.383 523.356 681.346 523.351ZM837.045 523.344C841.922 523.344 844.006 525.226 852 536.844C855.445 541.851 856.695 543.484 860.718 548.229L862.938 550.844L863.203 545.344C863.35 542.319 863.476 536.244 863.485 531.844L863.5 523.844H871.5V566.844L869.155 567.176C864.512 567.833 861.541 565.332 853.197 553.741C848.63 547.397 844.396 541.113 843.787 539.775C843.177 538.438 842.414 537.343 842.089 537.343C841.765 537.343 841.5 543.981 841.5 552.093V566.844H832.799L832.874 545.844C832.915 534.294 832.96 524.507 832.974 524.094C832.989 523.681 834.821 523.344 837.045 523.344ZM1603.82 526.094C1603.51 528.756 1603.28 528.853 1596.77 529.139L1590.04 529.435L1589.77 548.139L1589.5 566.844L1585.88 567.146C1582.54 567.426 1582.22 567.215 1581.63 564.271C1581.29 562.524 1581 553.95 1581 545.219V529.344L1577.75 529.199C1575.96 529.119 1573.15 529.125 1571.5 529.212C1567.5 529.423 1565.95 528.255 1566.65 525.559C1567.23 523.375 1567.48 523.344 1585.68 523.344H1604.13L1603.82 526.094ZM719.893 523.344C736.604 523.344 738.859 523.536 739.426 525.011C740.396 527.54 738.528 528.694 733.785 528.496C731.428 528.398 728.273 528.582 726.772 528.905L724.044 529.493L723.772 548.169L723.5 566.844L719.25 567.151C716.275 567.367 714.988 567.067 714.958 566.151C714.936 565.432 714.953 556.916 714.997 547.228L715.078 529.61L711.914 528.978C710.174 528.63 707.006 528.344 704.875 528.344C701.408 528.344 701 528.081 701 525.844V523.344H719.893ZM1121.86 523.344C1135.64 523.344 1137.87 523.563 1138.41 524.971C1139.75 528.462 1137.22 529.344 1125.88 529.344H1115V541.157L1124.47 541.868C1129.68 542.258 1134.6 542.328 1135.4 542.021C1137.64 541.162 1139.55 543.974 1138 545.844C1137.03 547.017 1134.27 547.344 1125.36 547.344H1113.97L1114.45 556.094C1114.71 560.906 1114.56 565.438 1114.11 566.163C1113.6 566.992 1111.85 567.364 1109.4 567.163L1105.5 566.844L1105.23 546.371C1105.08 535.111 1105.18 525.323 1105.45 524.621C1105.82 523.659 1109.87 523.344 1121.86 523.344ZM959.289 523.344C961.67 523.344 964.3 523.907 965.136 524.594C967.321 526.394 973.448 534.452 981.483 546.094C983.476 548.982 985.503 551.344 985.987 551.344C986.471 551.342 986.747 545.606 986.599 538.594C986.452 531.581 986.53 525.282 986.772 524.594C987.025 523.882 988.9 523.344 991.126 523.344H995.039L994.771 545.094L994.5 566.844L990.807 567.151C988.206 567.367 986.58 566.902 985.307 565.578C981.436 561.551 978 557.326 978 556.592C977.999 556.169 976.987 554.693 975.75 553.312C972.318 549.48 967 541.652 967 540.431C967 539.833 966.812 539.344 966.582 539.344C966.352 539.344 965.564 539.114 964.832 538.832C963.761 538.42 963.5 541.115 963.5 552.582V566.844H955.5L954.961 523.344H959.289ZM598 561.274L608.25 561.56C618.44 561.843 618.5 561.858 618.5 564.344V566.844L603.75 567.121C595.638 567.273 588.986 567.048 588.97 566.621C588.348 550.647 588.126 528.159 588.569 526.094C589.104 523.598 589.567 523.344 593.579 523.344H598V561.274ZM1145.73 523.538L1150.5 523.844L1150 566.844H1141.5L1141.23 545.038L1140.96 523.233L1145.73 523.538ZM1491.42 523.344C1496.28 523.344 1496.33 523.386 1504.25 534.775C1507.36 539.255 1508.58 540.356 1509.22 539.275C1509.68 538.488 1511.97 534.694 1514.31 530.844L1518.55 523.844H1523.53C1529.22 523.844 1529.68 524.811 1526 529C1521.47 534.163 1514.1 545.803 1512.49 550.362C1511.52 553.1 1511.02 557.178 1511.2 560.844L1511.5 566.844H1503.71L1503.59 557.547C1503.52 552.251 1503.01 547.948 1502.41 547.547C1501.83 547.161 1500.48 545.269 1499.42 543.344C1498.37 541.419 1497.24 539.619 1496.91 539.344C1495.16 537.846 1487 525.75 1487 524.645C1487 523.774 1488.46 523.344 1491.42 523.344ZM1610.25 522.989C1611.49 522.718 1615.43 522.683 1619 522.913C1622.58 523.142 1628.79 523.333 1632.82 523.337L1640.13 523.344L1639.5 528.844L1615.5 529.398L1615.84 535.34L1616.17 541.282L1627.84 541.563L1639.5 541.844L1640.13 547.344H1615.48L1615.38 553.594C1615.33 557.164 1615.76 560.158 1616.39 560.579C1617 560.983 1622.59 561.32 1628.82 561.329L1640.13 561.344L1639.5 566.844H1607.5L1607.22 547.344C1607.06 536.619 1607.17 526.863 1607.47 525.663C1607.76 524.464 1609.01 523.261 1610.25 522.989ZM809.759 531.339C804.099 527.888 794.861 529.509 791.662 534.514C788.564 539.361 787.614 544.892 789.017 549.903C792.011 560.597 803.901 564.306 812 557.072C819.676 550.216 818.496 536.666 809.759 531.339ZM1334.4 530.738C1323.96 526.375 1315.11 532.676 1314.79 544.704C1314.59 552.477 1317.25 557.09 1323.32 559.474C1334.36 563.81 1343 557.048 1343 544.066C1343 538.082 1339.69 532.947 1334.4 530.738ZM1029.54 530.358C1022.61 527.725 1015.57 530.132 1012.12 536.312C1010.1 539.937 1009.82 541.515 1010.25 546.905C1010.9 555.016 1013.59 558.618 1020.13 560.16C1028.36 562.103 1034.12 559.098 1037.45 551.112C1039.39 546.475 1039.41 543.511 1037.52 539.216C1035.51 534.65 1032.74 531.575 1029.54 530.358ZM1139.27 551.344C1139.27 548.869 1139.47 547.857 1139.71 549.094C1139.94 550.331 1139.94 552.357 1139.71 553.594C1139.47 554.831 1139.27 553.819 1139.27 551.344ZM764.535 530.959C762.077 529.348 752.018 528.66 750.667 530.011C749.833 530.844 749.787 541.623 750.607 543.762C751.395 545.815 758.757 545.891 763.532 543.896C766.825 542.52 767 542.197 767 537.51C767 533.367 766.604 532.314 764.535 530.959ZM1203.5 544.844L1207.92 545.16C1216.74 545.79 1220 543.546 1220 536.829C1220 533.445 1219.5 532.106 1217.78 530.901C1216.34 529.89 1213.34 529.344 1209.24 529.344H1202.92L1203.5 544.844ZM1252.5 219.01C1260.3 218.057 1285.61 218.532 1295.23 219.812C1301.13 220.598 1310.13 222.663 1315.23 224.403C1326.83 228.363 1344.23 237.262 1349.5 241.934C1351.7 243.884 1355.69 247.361 1358.38 249.661C1380.34 268.502 1393.31 290.998 1399.41 320.844C1405.27 349.501 1401.54 380.236 1389.29 404.128C1386.33 409.9 1382.62 416.484 1381.06 418.759C1377.68 423.674 1361.32 440.462 1355.13 445.376C1350.37 449.153 1334.31 459.342 1333.11 459.344C1332.71 459.344 1330.15 460.408 1327.44 461.708C1321.11 464.741 1304.95 468.877 1293.47 470.406C1287.88 471.149 1277.9 471.407 1267 471.089C1252.35 470.661 1247.87 470.149 1239.5 467.933C1212.65 460.827 1199.49 452.981 1177.91 431.209C1154.34 407.44 1142.9 380.35 1142.89 348.266C1142.87 318.84 1151.67 292.229 1169.3 268.344C1177.42 257.355 1182.57 252.117 1193.58 243.635C1212.84 228.8 1229.56 221.814 1252.5 219.01ZM1599.66 222.344C1609.97 222.344 1617.13 222.742 1617.5 223.336C1618.04 224.218 1609.7 232.672 1597.15 243.939C1594.76 246.087 1590.71 249.869 1588.15 252.344C1585.58 254.819 1581.01 259.037 1577.99 261.717C1574.97 264.397 1569.54 269.347 1565.93 272.717C1562.32 276.087 1554.24 283.569 1547.98 289.344C1541.72 295.119 1534.83 301.484 1532.67 303.489L1528.73 307.134L1532.05 312.989C1533.87 316.209 1535.64 319.069 1535.98 319.344C1536.32 319.619 1537.92 322.094 1539.54 324.844C1541.15 327.594 1542.93 330.582 1543.49 331.485C1544.04 332.389 1546.21 335.989 1548.3 339.485C1550.4 342.982 1553.77 348.412 1555.8 351.55C1557.84 354.689 1562.82 362.564 1566.88 369.05C1570.95 375.537 1575.7 383.094 1577.46 385.844C1579.21 388.594 1581.91 393.094 1583.47 395.844C1587.2 402.458 1598.35 420.396 1603.16 427.539C1605.27 430.671 1607 433.671 1607 434.206C1607 434.74 1607.41 435.327 1607.91 435.511C1609.79 436.203 1628.2 467.241 1627.67 468.829C1627.47 469.442 1621.16 469.953 1611.73 470.119L1596.13 470.395L1593.56 467.629C1592.15 466.109 1591 464.47 1591 463.988C1591 463.506 1589.31 460.82 1587.25 458.019C1585.19 455.217 1583.05 452.159 1582.5 451.223C1575.53 439.355 1553.11 404.32 1550.26 400.844C1548.52 398.717 1543 389.268 1543 388.412C1543 387.916 1542.65 387.361 1542.22 387.177C1541.78 386.991 1538.78 382.567 1535.55 377.344C1528.91 366.621 1514.25 343.972 1509.89 337.682C1508.3 335.392 1507 333.098 1507 332.586C1507 332.073 1506.1 330.839 1505 329.844C1503.22 328.229 1502.81 328.195 1501.25 329.525C1500.29 330.345 1496.11 333.903 1491.97 337.431C1487.83 340.958 1482.09 345.812 1479.22 348.217L1474 352.59V410.268C1474 453.794 1473.71 468.239 1472.8 469.145C1472 469.942 1467.64 470.344 1459.81 470.344H1448.02L1447.76 347.094C1447.62 279.306 1447.64 223.507 1447.81 223.094C1447.98 222.681 1453.72 222.344 1460.56 222.344C1467.4 222.344 1473.01 222.681 1473.02 223.094C1473.03 223.507 1473.08 244.657 1473.12 270.094C1473.16 295.532 1473.57 316.344 1474.03 316.344C1474.48 316.343 1475.46 315.782 1476.2 315.094C1477.71 313.693 1492.84 300.28 1497.49 296.222C1501.58 292.655 1532.56 265.487 1537.37 261.252C1539.5 259.377 1542.46 256.719 1543.96 255.344C1545.46 253.969 1548.89 250.972 1551.59 248.682C1554.29 246.392 1557.44 243.692 1558.6 242.682C1570.11 232.609 1574.63 228.606 1576 227.283C1580.98 222.483 1581.65 222.344 1599.66 222.344ZM900.867 219.344C902.043 219.344 907.58 224.53 912.174 229.932C914.553 232.73 918.378 237.23 920.674 239.932C922.969 242.633 926.119 246.23 927.674 247.925C929.228 249.619 933.2 254.115 936.5 257.916C939.8 261.716 944.334 266.855 946.575 269.335C951.749 275.06 954.916 278.683 964.504 289.844C975.598 302.757 981.434 309.473 984.136 312.436C987.811 316.465 992.012 321.289 997.997 328.354C1001.02 331.924 1006.66 338.444 1010.54 342.844C1014.41 347.244 1018.69 352.142 1020.04 353.728C1023.05 357.251 1022.88 357.057 1031.55 366.868C1035.43 371.255 1041.01 377.769 1043.95 381.344C1049.2 387.74 1059.38 399.363 1065.75 406.244L1068.99 409.75L1069.5 221.844L1079.5 221.552C1085 221.391 1090.51 221.512 1091.75 221.821L1094 222.382V344.781C1094 412.101 1093.73 467.893 1093.39 468.763C1093.06 469.632 1091.96 470.344 1090.94 470.344C1088.9 470.344 1087.39 468.957 1078.35 458.772C1074.97 454.962 1071.14 450.689 1069.85 449.277C1067.24 446.427 1057.34 435.231 1054 431.344C1052.81 429.969 1050.42 427.265 1048.67 425.336C1046.93 423.407 1040.77 416.432 1035 409.837C1029.23 403.242 1024.05 397.352 1023.5 396.748C1019.7 392.578 1010.36 381.796 1008.61 379.564C1007.45 378.081 1005.83 376.165 1005 375.309C1002.59 372.811 993.238 361.919 990.775 358.75C989.533 357.152 987.792 355.169 986.907 354.344C986.132 353.622 983.62 350.786 981.016 347.706L978.781 345.046C976.18 341.962 973.684 339.113 972.926 338.376C972.06 337.533 969.748 334.819 967.789 332.344C965.83 329.869 962.263 325.744 959.864 323.178C957.464 320.612 953.7 316.346 951.5 313.698C947.302 308.644 935.804 295.605 929.637 288.904L926.011 284.965L925.755 376.904L925.5 468.844H899.5L899.203 350.344C899.04 285.169 899.188 229.032 899.533 225.594C899.877 222.157 900.478 219.344 900.867 219.344ZM1655.72 221.952C1656.85 220.829 1679.4 222.467 1680.24 223.733C1681.23 225.264 1681.21 468.096 1680.22 468.709C1678.79 469.592 1660.22 470.615 1657.59 469.955L1655 469.307V345.992C1655 278.178 1655.33 222.366 1655.72 221.952ZM544.673 222.004C545.048 221.634 577.109 221.446 615.923 221.587L686.5 221.844L686.78 234.594L687.06 247.344H570V323.344L592.75 323.594C605.263 323.731 621.043 323.844 627.818 323.844C637.736 323.844 640.295 324.136 640.953 325.344C641.402 326.169 641.709 331.248 641.635 336.631C641.531 344.134 641.15 346.639 640 347.366C639.133 347.913 624.317 348.32 604.903 348.329L571.306 348.344L570.657 359.594C570.053 370.088 569.699 443.067 570.25 443.574C570.39 443.7 596.601 444.037 628.5 444.324L686.5 444.844L686.782 456.567L687.063 468.29L684.282 468.989C680.586 469.918 547.998 470.048 545.75 469.125C544.097 468.446 544 461.614 544 345.542C544 277.966 544.303 222.374 544.673 222.004ZM1290.94 244.983C1279.62 242.976 1269.57 242.385 1263.5 243.371C1260.75 243.818 1255.8 244.622 1252.5 245.158C1243.75 246.579 1230.66 251.768 1219.02 258.425C1213.68 261.479 1198.1 274.511 1194.43 278.996C1186.16 289.084 1178.08 303.868 1173.55 317.209C1168.3 332.627 1167.88 358.918 1172.63 374.772C1173.94 379.142 1177.47 387.695 1180.49 393.78C1189.68 412.322 1202.96 424.939 1224.5 435.603C1238.15 442.358 1239.71 442.95 1249 444.871C1259.22 446.985 1281.92 446.956 1293 444.815C1297.68 443.912 1301.95 442.834 1302.5 442.419C1303.05 442.005 1307.33 440.155 1312 438.309C1327.98 431.998 1342.85 421.349 1353.17 408.844C1360.33 400.163 1370.13 380.836 1373.19 369.344C1376.25 357.911 1376.5 331.496 1373.66 321.344C1367.01 297.581 1353.15 277.242 1334.47 263.817C1322.9 255.5 1303.91 247.282 1290.94 244.983ZM738.332 340.919C738.623 340.169 752.324 339.921 783.622 340.097C808.305 340.236 829.063 340.348 829.75 340.347C830.666 340.346 831 342.987 831 350.231V360.117L828.038 360.552C826.409 360.791 805.597 360.954 781.788 360.915L738.5 360.844L738.21 351.419C738.051 346.235 738.106 341.51 738.332 340.919ZM120.571 1.34374C121.711 0.020111 141.389 -0.128768 288.075 0.0742119C379.48 0.200191 454.491 0.526849 454.789 0.798821C455.062 1.07182 454.823 1.86931 454.258 2.57031C453.694 3.27175 452.048 7.15071 450.602 11.1914C448.294 17.6385 442.071 32.3961 435.777 46.3437C434.661 48.8187 432.421 54.2188 430.801 58.3437C429.181 62.4686 426.944 67.8449 425.83 70.292C424.716 72.738 422.547 78.138 421.011 82.292C417.839 90.873 409.748 110.474 397.051 140.344C392.258 151.618 386.854 164.668 385.042 169.344C378.581 186.01 371.75 202.921 369.489 207.844C368.226 210.594 365.765 216.219 364.02 220.344C362.275 224.468 360.244 229.193 359.506 230.844C358.768 232.494 356.308 238.569 354.038 244.344C351.769 250.119 349.256 256.038 348.456 257.498C347.655 258.958 347.005 260.758 347.012 261.498C347.028 263.327 350.898 255.121 356.281 241.844C358.734 235.794 362.824 226.229 365.371 220.588C367.917 214.947 370 210.142 370 209.907C370 209.674 371.309 206.64 372.909 203.164C374.509 199.688 378.597 189.481 381.993 180.482C385.39 171.484 389.504 161.134 391.136 157.482C392.768 153.831 394.961 148.819 396.01 146.344C397.058 143.868 400.424 136.08 403.49 129.036C406.555 121.991 410.898 111.641 413.139 106.036C415.38 100.43 417.822 94.4937 418.564 92.8437C419.307 91.1929 421.913 84.6681 424.354 78.3437C428.265 68.2179 433.151 56.4972 437.463 46.9014C438.219 45.2204 440.921 38.8937 443.469 32.8437C449.775 17.8689 453.047 11.3437 454.25 11.3437C454.903 11.3437 455.1 16.028 454.804 24.5937L454.348 37.8437L448.221 52.8437C444.851 61.0936 440.692 71.2186 438.978 75.3437C437.263 79.4686 435.032 85.0937 434.018 87.8437C428.922 101.669 417.678 131.205 416.506 133.844C412.662 142.499 395.578 184.692 390.998 196.844C388.096 204.543 384.945 212.643 383.998 214.844C383.05 217.044 381.023 222.219 379.494 226.344C377.965 230.468 376.405 234.292 376.026 234.844C375.647 235.394 374.3 238.769 373.032 242.344C371.764 245.919 369.709 251.094 368.465 253.844C367.221 256.594 363.216 266.494 359.564 275.844C355.914 285.192 352.503 293.742 351.985 294.844C351.468 295.944 350.312 299.071 349.415 301.793C348.519 304.516 346.762 309.016 345.51 311.793C344.259 314.571 342.222 319.769 340.983 323.344C339.745 326.919 337.693 332.204 336.423 335.088L334.115 340.332L168.057 340.588C76.7258 340.729 1.55 340.694 1 340.511C0.376081 340.302 0 332.312 0 319.261V298.344H165.347C321.397 298.344 330.806 298.246 332.68 296.594C333.772 295.632 334.924 293.829 335.241 292.588L335.816 290.333L168.658 290.356C22.0996 290.376 1.46094 290.197 1.18457 288.903C1.01057 288.092 1.79857 285.327 2.93457 282.759C4.07053 280.191 5 277.472 5 276.717C5.00015 275.962 5.45009 275.344 6 275.344C6.55 275.344 7 274.736 7 273.993C7.00006 273.25 9.96589 265.712 13.5898 257.243C20.6228 240.811 21.437 238.892 24.998 230.344C26.259 227.319 28.3496 222.469 29.6445 219.567C30.9395 216.664 32 213.864 32 213.344C32.0007 212.822 33.1795 209.798 34.6201 206.621C39.3357 196.224 39.9999 194.559 40 193.144C40 192.374 40.3874 191.316 40.8604 190.794C41.3336 190.27 42.5468 187.48 43.5576 184.594C44.5675 181.707 45.7059 179.344 46.0859 179.344C46.4659 179.344 47.0603 177.838 47.4053 175.998C47.7503 174.157 48.8725 170.895 49.8984 168.748C54.0724 160.011 56.9502 153.321 63.6201 136.844C66.0691 130.794 68.7008 124.494 69.4678 122.844C70.2359 121.193 72.3131 116.018 74.085 111.344C75.8569 106.669 77.6873 102.417 78.1533 101.895C78.6193 101.372 79.0151 100.246 79.0342 99.3945C79.0532 98.5415 79.937 96.0437 81 93.8437C82.0629 91.6439 82.9468 89.502 82.9658 89.083C82.9851 88.6646 83.8707 86.4147 84.9355 84.083C86.0005 81.752 88.073 76.9187 89.54 73.3437C91.0071 69.7686 93.9616 63.105 96.1045 58.5351C98.2467 53.9668 99.9988 50.0058 100 49.7305C100 49.4575 100.842 47.3461 101.872 45.0391C102.901 42.732 104.715 38.1437 105.903 34.8437C107.845 29.45 109.644 25.2062 112.147 20.1084C112.616 19.1535 113 17.9164 113 17.3603C113 15.9093 119.043 3.12674 120.571 1.34374ZM342.345 275.887C343.021 274.125 342.445 273.815 341.459 275.411C341.096 275.997 341.014 276.692 341.276 276.954C341.538 277.216 342.019 276.736 342.345 275.887ZM345.747 265.758C345.472 265.483 344.956 266.018 344.6 266.944C344.244 267.871 344.178 268.855 344.453 269.13C344.728 269.405 345.244 268.871 345.6 267.944C345.956 267.017 346.022 266.033 345.747 265.758ZM139.5 27.3789L137.292 32.1123C133.77 39.6622 128.216 52.8529 122.88 66.3437C120.16 73.2183 117.542 79.7431 117.06 80.8437C116.579 81.9437 113.584 89.3689 110.404 97.3437C107.224 105.319 104.032 112.732 103.311 113.817C102.59 114.901 102 116.341 102 117.015C101.999 117.689 100.477 121.525 98.6162 125.541C96.7552 129.558 93.1087 138.019 90.5127 144.344C87.918 150.668 85.2048 157.193 84.4824 158.844C83.7604 160.494 79.2641 171.519 74.4922 183.344C69.7193 195.168 65.0247 206.643 64.0615 208.844C63.0975 211.044 61.0108 215.994 59.4248 219.844C57.8395 223.692 56.1964 226.991 55.7715 227.177C55.3476 227.361 55.0002 228.074 55 228.762C55 229.45 53.1724 234.475 50.9385 239.929C45.1405 254.084 42.6954 261.373 43.4824 262.16C43.8794 262.536 104.916 262.844 179.14 262.844H314.114L315.997 260.349C317.032 258.976 319.228 254.476 320.875 250.349C323.658 243.378 331.799 224.415 333.972 219.844C334.495 218.743 337.378 211.768 340.38 204.344C348.287 184.785 364.466 145.43 366.279 141.344C367.134 139.419 368.567 136.044 369.465 133.844C370.363 131.644 371.525 129.064 372.048 128.108C372.572 127.153 373 125.69 373 124.858C373 124.025 373.45 123.344 374 123.344C374.55 123.344 375 122.684 375 121.878C375 121.072 375.658 118.934 376.463 117.128C377.268 115.322 380.019 108.444 382.576 101.844C385.133 95.2439 388.048 88.0437 389.054 85.8437C390.06 83.6435 392.524 77.7935 394.529 72.8437C401.814 54.8583 404.924 47.4363 405.92 45.6582C407.442 42.9442 413 29.2697 413 28.2393C413 27.7173 356.101 27.3513 276.25 27.3623L139.5 27.3789ZM351.719 70.5937C350.99 73.7877 347.247 83.8359 344.97 88.7109C343.908 90.9838 342.173 95.3188 341.114 98.3437C338.472 105.889 331.743 122.878 329.232 128.344C328.095 130.819 325.15 137.794 322.688 143.844C318.012 155.328 315.859 160.795 303.986 191.344C300.032 201.518 296.168 211.262 295.398 212.995C294.629 214.728 294 216.641 294 217.245C294 217.85 292.988 218.351 291.75 218.359C263.119 218.554 106.629 218.209 106.273 217.95C106.073 217.75 108.405 211.269 111.455 203.547C114.505 195.824 117 189.02 117 188.425C117 187.831 117.45 187.344 118 187.344C118.55 187.344 119 186.638 119 185.774C119 184.911 120.311 180.974 121.914 177.024C123.516 173.075 126.779 164.894 129.164 158.844C131.549 152.794 133.838 147.694 134.25 147.511C134.662 147.327 135 146.555 135 145.795C135 145.034 135.634 142.934 136.409 141.128C137.183 139.322 139.156 134.469 140.793 130.344C142.43 126.219 144.947 119.919 146.387 116.344C147.827 112.769 149.004 109.319 149.003 108.677C149.001 108.036 149.339 107.361 149.754 107.177C150.169 106.993 151.593 103.693 152.919 99.8437C154.244 95.9938 156.38 90.5101 157.664 87.6582C158.949 84.8062 160 82.0511 160 81.5351C160 80.269 164.007 71.1557 165.25 69.5937C166.036 68.61 186.048 68.3437 259.239 68.3437H352.233L351.719 70.5937Z" fill="white"/>
</svg>
